<?xml version="1.0" encoding="utf-8"?>
<!-- Generator: Adobe Illustrator 15.0.0, SVG Export Plug-In . SVG Version: 6.00 Build 0)  -->
<!DOCTYPE svg PUBLIC "-//W3C//DTD SVG 1.1//EN" "http://www.w3.org/Graphics/SVG/1.1/DTD/svg11.dtd">
<svg version="1.1" id="Layer_1" xmlns="http://www.w3.org/2000/svg" xmlns:xlink="http://www.w3.org/1999/xlink" x="0px" y="0px"
	 width="74px" height="116px" viewBox="0 0 74 116" enable-background="new 0 0 74 116" xml:space="preserve">
<g id="XMLID_2_">
	<g>
		<path d="M67.111,73.142c-0.104,0.103-0.178-0.107-0.412-0.103c0.01,0.164-0.05,0.394,0.103,0.413c-0.015,0.258-0.349,0.03-0.414,0
			c-0.001,0.244,0.18,0.303,0.104,0.62c-0.376-0.323-0.416,0.418-0.31,0.62c-0.189-0.235-0.733-0.186-0.725,0.311
			c0.037,0.162,0.183-0.092,0.208,0.103c-0.189,0.328-0.49,0.233-0.414,0.621c-0.813-0.453-1.216-2.329-0.206-2.481
			c0-0.243-0.179-0.304-0.104-0.619c0.213,0.028,0.025,0.458,0.31,0.413c0.424-0.512,0.659-0.576,1.033-1.137
			C66.842,72.256,66.816,72.552,67.111,73.142z"/>
		<path d="M65.873,71.799c0,0.069,0,0.138,0,0.206c-0.069,0-0.138,0-0.207,0c0-0.068,0-0.137,0-0.206
			C65.735,71.799,65.804,71.799,65.873,71.799z"/>
		<path d="M55.432,83.892c-0.707-0.58-0.688-0.864-1.445-1.551C54.209,83.051,54.735,84.002,55.432,83.892z M54.126,77.402
			c0.002,0.01,0.003,0.018,0.005,0.023L54.126,77.402z M54.084,77.149l-0.006-0.035C54.08,77.123,54.082,77.136,54.084,77.149z
			 M54.108,77.295L54.1,77.244C54.103,77.263,54.105,77.279,54.108,77.295z M46.751,75.418c0,0.069,0,0.136,0,0.205
			c0.004,0.063,0.013,0.123,0.102,0.104c0.094-0.347,0.23-0.09,0.414,0C47.285,75.224,46.905,75.597,46.751,75.418z M43.854,83.995
			c-0.097,0.239-0.007,0.334-0.103,0.726c0.426,0.009-0.075,0.691,0.207,0.721c-0.031-0.28,0.486,0.316,0.207,0
			C43.961,85.062,44.125,84.312,43.854,83.995z M43.646,87.199c-0.204-0.31-0.274-0.758-0.309-1.239
			c-0.276,0.25-0.004,0.823,0,1.138c-0.243-0.135-0.231,0.052-0.413-0.207c0.008,0.461,0.237,0.131,0.413,0.31
			c0.139,0.172-0.036,0.656,0.31,0.62c0,0.034,0,0.069,0,0.104c-0.448,0-0.895,0-1.344,0c0.464-0.944,0.258-0.934,0.828-1.654
			c-0.144-1.071,0.261-0.249,0.515-0.514c-0.153,0.272-0.101,0.998,0.208,0.825c-0.301-0.406-0.08-0.954-0.103-1.551
			c-0.406,0.106-0.071,0.65-0.516,0.516c0.247-0.131-0.059-0.814,0.206-0.93c0.011,0.126,0.03,0.245,0.205,0.206
			c-0.395-0.385,0.222-0.727,0-1.136c0.133,0.004,0.144,0.132,0.312,0.103c-0.087-1.082,0.381-1.405,0.415-1.964
			c0.283,0.281,0.096-0.15,0.309-0.207c-0.094,0.213,0.341,0.392,0.309,0.207c-0.13-0.454-0.5-0.135-0.617-0.207
			c0.159-0.38,0.182-0.432,0.514-0.207c0.165-0.403-0.267-0.214-0.309-0.413c0.36,0.093,0.178-0.336,0.104-0.413
			c0.605,0.117,0.154-0.553,0.827-0.518c0.061-0.182-0.126-0.608,0.102-0.62c0.005,0.313,0.079,1.087,0.413,0.724
			c-0.396,0.076,0.136-0.562-0.309-0.619c0.293,0.015-0.085-0.638,0.206-0.622c0.294-0.018-0.123,0.677,0.312,0.518
			c-0.02-0.306-0.284-1.396,0.205-1.551c-0.016-0.497-0.479-1.031,0.104-1.343c-0.05,0.421-0.04,0.701,0.208,0.826
			c0.146-0.223-0.28-0.754-0.208-1.24c0.321-0.052,0.5,0.245,0.31-0.104c0.24-0.079-0.49,0.05-0.517-0.31
			c0.382,0.061-0.13-0.558,0.517-0.412c-0.214-0.378-0.068-0.479-0.206-0.932c0.062,0.03,0.397,0.257,0.412,0
			c-0.012-0.151-0.235-0.275-0.206-0.724c0.124-0.017,0.294,0.018,0.311-0.103c-0.274-0.043-0.143-0.638-0.206-1.139
			c0.498,0.127,0.254-0.83,0.619-0.516c-0.185-0.439,0.008-0.612,0.309-0.621c-0.106-0.557,0.508-1.099,0.727-1.653
			c0.136,0.016,0.384-0.348,0.412-0.104c-0.59,0.781-0.185,2.02-0.103,2.584c0.176,0.04,0.264-0.153,0.31,0
			c0.378,0.519,0.857,0.936,1.447,1.241c-0.262-0.449,0.236-0.406,0.207-0.622c0.172,0.105,0.072,0.479,0.311,0.518
			c0.031,0.239-0.299,0.115-0.311,0.312c0.6-0.069,0.021,0.438,0.412,0.62c0.023-0.184-0.104-0.519,0.209-0.414
			c-0.142,0.14-0.201,0.722,0.103,0.724c-0.075-0.17,0.205-0.449,0.205-0.208c0,0.104,0.084,0.124,0.104,0.208
			c-0.021,0.125-0.113,0.064-0.207,0c0.102,0.244,0.363,0.325,0.414,0.619c0.022-0.08,0.002-0.202,0.104-0.204
			c0.032,0.241,0.122,0.426,0.203,0.617c0.203,0.033,0.208-0.139,0.312-0.204c0.166,0.484,0.067,0.242,0.309,0.204
			c0.168-0.024,0.103,0.273,0.305,0.309c-0.061-0.023,0.273-0.216,0.317-0.204c0.281,0.069,0.176,0.216,0.517,0.311
			c0.29-0.173-0.017-0.529,0.309-0.311c0.061-0.47-0.233-1.121,0.104-0.931c-0.07-1.403,0.655-1.773,0.311-3.1
			c0.297-0.197,1.03-0.114,1.344,0c0.183,0.925,1.11,1.559,0.618,2.066c-0.021,0.208,0.462,0.419,0.104,0.619
			c-0.112-0.39-0.307,0.093-0.411,0.412c0.021-0.33-0.184-0.436-0.104-0.824c-0.335-0.128-0.078,0.335-0.413,0.206
			c-0.321,1.369,0.008,2.676-0.414,3.617c-0.354-0.393-0.146-0.733-0.62-1.033c-0.611,1.313-0.161,2.882,0.517,3.723
			c0.022-0.082,0.004-0.204,0.104-0.208c-0.021,0.952,1.126,1.07,1.551,2.067c0.309,0.036,0.629,0.061,0.723,0.311
			c-0.261,0.179-0.399-0.156-0.413,0.206c0.501,0.272,1.22,0.713,1.033,1.344c0.332-0.09,0.324,0.16,0.415,0.311
			c0.386,0.013,1.163,0.003,0.93,0.312c0.827-0.118,0.329-0.168,0.931,0c0.041-0.179-0.153-0.267,0-0.312
			c0.251,0.14,0.064,0.207,0.207,0.312c0.651-0.214,0.782-0.53,1.55-0.932c0.01,0.115-0.15,0.161,0,0.205
			c0.23-0.508,0.432-0.731,0.827-1.032c0.198-0.152,0.512-0.207,0.519-0.207c0.199-0.181,0.609-0.809,0.539-0.998
			c0.172,0.17,0.489-0.827,0.493-0.862c0.055-0.626-0.294-1.143-0.414-1.757c-0.19-0.968,0.035-2.103,0.104-3.102
			c0.541,1.576,1.507,3.325,1.034,4.549c0.121,0.051,0.233,0.11,0.31,0.207c-0.456,1.128-0.778,2.392-1.757,2.997
			c0.086,0.292-0.146,0.267-0.104,0.517c-0.104,0-0.205,0-0.31,0c0,0.138,0,0.276,0,0.415c-0.403-0.352-0.272,0.494-0.827,0.31
			c-0.086,0.601-0.233,0.312-0.515,0.411c0.021,0-0.206,0.312-0.313,0.312c-0.186,0-0.363,0.107-0.619,0.311
			c-0.24,0.032-0.397-0.018-0.517-0.104c-0.99,0.9-2.264,0.56-3.309,0.931c0.061-0.417-0.307,0.052-0.62-0.104
			c-0.007,0.442,0.333,0.527,0.104,0.723c-0.229-0.149,0.129-0.251-0.104-0.31c-0.215,0.326-0.533-0.051-0.62,0.31
			c0.229,0.079,0.494,0.114,0.724,0.414c-1.964,0-3.928,0-5.893,0c0.148-0.514-0.036-0.565-0.001-0.91
			c-0.021,0.328,0.49-0.222,0.001-0.227c0.194-0.23,0.123-0.245,0.104-0.518c0.044-0.149,0.09,0.01,0.207,0
			c0.165-0.719-0.065-1.456,0.31-1.757c-0.056-0.159-0.108-0.006-0.104,0.104c-0.229-0.382,0.44-0.79,0.104-1.137
			c0.045-0.151,0.092,0.01,0.207,0c-0.312-0.369,0.338-0.567-0.104-0.725c0.012-0.195,0.342-0.071,0.311-0.31
			c-0.018-0.12-0.189-0.087-0.311-0.104c0.385-0.654,0.655-1.768,0.411-2.273c0.03-0.23,0.19,0.104,0.208,0.104
			c0.121-0.007,0.106-0.309,0.104-0.31c0.479,0.278,0.166,0.816,0.517,1.55c0.083-0.02,0.104-0.104,0.207-0.104
			c-0.345-0.341-0.292-1.585-0.415-1.86c-0.008-0.021-0.309,0.017-0.309,0c-0.01-0.14,0.162-0.031,0.207-0.104
			c0.074-0.124-0.109-0.754,0.205-0.414c-0.216-0.465-0.308-1.029,0-1.446c-0.415-0.396-0.167-0.854-0.31-1.344
			c-0.207-0.036-0.322,0.021-0.31,0.207c-0.228-0.016-0.222-0.261-0.206-0.518c-0.179-0.003-0.269,0.078-0.311,0.207
			c-0.253-0.064-0.057-0.521,0.208-0.413c-0.155-0.407-0.123,0.021-0.416,0c-0.043-0.216,0.071-0.274,0.104-0.413
			c-0.069-0.14-0.222-0.192-0.412-0.207c0.117,0.451,0.272,0.62,0.103,1.033c-0.232-0.043-0.08-0.548,0-0.619
			c-0.243,0.229-0.299-0.31-0.413-0.515c-0.192,0.626,0.28,1.19,0.311,1.961c0.003,0.116,0.158,0.616-0.209,0.62
			c0.317-0.752-0.324-1.282-0.412-2.169c-0.377,0.284,0.206,1.182,0.206,1.756c-0.139,0-0.275,0-0.413,0
			c0.029,0.348,0.051,0.706,0.207,0.931c-0.396,0.32-0.049-0.981-0.622-0.827c0.394-0.359-0.005-0.725-0.204-1.24
			c-0.232,0.015,0.134,0.261,0,0.517c0.073,0.096,0.186,0.155,0.309,0.206c-0.021,0.139-0.429,0.192,0,0.207
			c-0.292,0.242,0.025,0.62-0.517,0.414c-0.074,0.315,0.105,0.376,0.104,0.619c-0.15,0.057-0.537-0.12-0.518,0.104
			c-0.229-0.083-0.134-0.487-0.413-0.518c-0.038,0.113-0.452,0.433-0.412,0c-0.227-0.017-0.047,0.367-0.104,0.518
			c-0.14-0.069-0.191-0.221-0.207-0.413c-0.204,0.279-0.33,0.634-0.724,0.723c0.059,0.941-0.809,1.246-0.413,1.963
			c-0.116,0.332-0.295-0.098-0.206-0.311c-0.34,0.246,0.095,0.586,0.102,0.829c-0.136-0.124-0.161-0.04-0.308,0
			c0.041,0.216-0.073,0.274-0.104,0.412c0.58,0.142-0.261,0.689-0.104,1.345c-0.175,0.038-0.195-0.08-0.207-0.206
			c-0.197,0.255-0.256,0.707-0.103,1.033c-0.353,0.114-0.247,0.121-0.209,0.516c-0.302,0.029-0.354-0.023-0.205-0.205
			c-0.512,0.208,0.268,0.343,0.205,0.723c-0.09-0.045-0.184-0.091-0.205-0.206c-0.257,0.675-0.466,1.94,0.103,2.895
			c-0.265,0.257-0.26-0.63-0.516-0.725c-0.303,0.513,0.249,1.059,0.31,1.551c-0.069,0-0.138,0-0.206,0
			c0.015-0.395-0.261-0.498-0.312-0.826c-0.276,0.319,0.254,0.394,0,0.826c-0.483,0-0.964,0-1.446,0
			C43.612,87.809,43.247,86.905,43.646,87.199z M49.598,76.162c0.001,0.003,0.002,0.006,0.003,0.01
			C49.6,76.168,49.599,76.164,49.598,76.162z M49.606,76.195c-0.003-0.009-0.005-0.016-0.006-0.021
			C49.602,76.18,49.604,76.186,49.606,76.195z M49.65,76.374c-0.001-0.004-0.002-0.008-0.003-0.013
			c-0.008-0.028-0.017-0.067-0.026-0.104c-0.002-0.011-0.005-0.022-0.008-0.033c0.002,0.01,0.005,0.021,0.008,0.033
			c0.006,0.025,0.014,0.054,0.022,0.089c0.001,0.006,0.002,0.011,0.004,0.015C49.648,76.366,49.649,76.371,49.65,76.374z
			 M58.532,85.96c-0.436,0.149-0.379,0.018-0.31-0.414c-0.696-0.211-1.279-1.044-1.963-0.93c-0.053-0.362-0.532-0.295-0.621-0.622
			c0.041,0.25-0.47-0.055-0.31,0.312c0.959,0.089,0.986,0.509,1.241,0.931c0.144-0.45,0.356,0.076,0.516,0.205
			c0.039-0.176-0.152-0.264,0-0.309C57.254,85.806,58.08,86.441,58.532,85.96z M56.672,86.891c-0.349-0.134-0.546,0.404-0.31,0.516
			C56.422,87.191,56.579,87.071,56.672,86.891z M54.296,76.968c0.016-0.073-0.037-0.603-0.104-0.312
			C54.099,77.051,54.247,77.174,54.296,76.968z M50.885,76.968c0-0.104,0-0.208,0-0.312c-0.069,0-0.138,0-0.207,0
			c-0.005,0.133-0.132,0.144-0.104,0.312C50.678,76.968,50.781,76.968,50.885,76.968z M50.573,76.14
			c0.138-0.135,0.024-0.547-0.206-0.621C50.347,75.816,50.393,76.045,50.573,76.14z M49.644,77.69c0-0.068,0-0.138,0-0.207
			c-0.07,0-0.137,0-0.207,0c0,0.069,0,0.139,0,0.207C49.507,77.69,49.573,77.69,49.644,77.69z M47.989,73.969
			c0.236,0.029,0.389-0.025,0.413-0.206C48.141,73.708,48.003,73.587,47.989,73.969z M47.472,74.072
			c0.255,0.332,0.641-0.24,0.209-0.31C47.711,73.966,47.54,73.968,47.472,74.072z M47.472,74.278
			c0.102-0.315-0.506-0.441-0.515-0.31C47.146,74.267,47.215,74.203,47.472,74.278z M46.646,78.828
			c-0.081-0.229-0.06-0.562-0.311-0.621c-0.043,0.249,0.188,0.224,0.103,0.517c-0.055,0-0.115,0.084,0,0.104
			C46.462,78.703,46.554,78.764,46.646,78.828z M46.438,81.103c0-0.07,0-0.14,0-0.208c-0.067,0-0.138,0-0.205,0
			c0,0.068,0,0.138,0,0.208C46.301,81.103,46.371,81.103,46.438,81.103z M46.129,80.171c0.323,0.148,0.323-0.768,0-0.619
			C46.076,79.877,46.354,79.955,46.129,80.171z M46.024,82.549c0.26,0.098,0.031-0.592,0-0.208
			C46.035,82.51,45.854,82.792,46.024,82.549z M45.819,81.103c0.511,0.134,0.186-0.653,0-0.311
			C45.98,80.818,45.89,81.019,45.819,81.103z M45.611,81.722c-0.074-0.453,0.206,0.084,0.208-0.207
			c-0.347-0.179,0.056-0.462-0.31-0.62c0.121-0.017,0.111-0.164,0.102-0.31c-0.371-0.1-0.144,0.406-0.205,0.619
			c-0.14-0.031-0.197-0.146-0.415-0.102c0,0.102,0,0.205,0,0.309C45.391,81.179,45.461,81.455,45.611,81.722z M45.611,80.48
			c0-0.102,0-0.207,0-0.31c-0.102,0-0.205,0-0.31,0c0,0.103,0,0.208,0,0.31C45.406,80.48,45.51,80.48,45.611,80.48z M45.406,82.341
			c-0.186-0.161,0.17-0.8-0.208-0.93c-0.024,0.148-0.17,0.175-0.207,0.311c0.177,0.04,0.267-0.153,0.311,0
			C44.982,81.867,45.206,82.561,45.406,82.341z M45.198,84.099c0.19-0.456-0.165-0.423,0-0.723
			C44.834,83.455,45.216,83.858,45.198,84.099z M45.198,80.998c0.014-0.258,0.197-0.323-0.102-0.413
			c-0.003,0.136-0.18,0.094-0.209,0.207C45.053,80.8,44.97,81.055,45.198,80.998z M45.198,83.169
			c-0.207-0.24-0.247-0.646-0.207-1.138c-0.121,0.018-0.293-0.017-0.309,0.104C45.031,82.321,44.612,83.047,45.198,83.169z
			 M44.785,83.994c0.027-0.544-0.223-0.579,0.103-0.825c-0.614-0.148-0.107-0.449-0.309-0.724c-0.017-0.155,0.039-0.381-0.104-0.414
			c-0.073,0.075-0.258,0.505,0.104,0.414c-0.62,0.168-0.707,1.484-0.104,1.758c-0.194-0.353-0.233-0.768-0.101-1.034
			c0.266,0.132,0.044,0.492,0.205,0.518C44.829,83.426,44.404,84.046,44.785,83.994z M44.579,85.856
			c0.081-0.605-0.369-0.642,0-1.034C44.011,85.004,44.47,85.432,44.579,85.856z M44.269,84.721c0.301,0.151,0.301-0.463,0-0.312
			C44.269,84.513,44.269,84.616,44.269,84.721z M44.062,86.477c0.539-0.027-0.097-0.691,0.207-0.827
			C43.633,85.774,44.329,86.055,44.062,86.477z M43.752,87.614c0.493,0.466,0.06-0.283,0.103-0.414
			C43.673,87.411,43.933,87.403,43.752,87.614z M43.959,87.098c0-0.104,0-0.207,0-0.311c-0.123,0.016-0.292-0.019-0.312,0.104
			C43.812,86.898,43.729,87.154,43.959,87.098z M42.925,87.715c0.255,0.163,0.304-0.35,0.104-0.309
			c-0.005,0.063-0.016,0.123-0.104,0.104C42.925,87.579,42.925,87.646,42.925,87.715z"/>
		<path d="M64.447,81.754c-0.008-0.007-0.016-0.019-0.022-0.032C64.435,81.73,64.443,81.74,64.447,81.754z"/>
		<path d="M59.358,59.912c-0.416,0.121-0.69-0.249-1.446-0.207C58.216,59.232,59.087,59.694,59.358,59.912z"/>
		<path d="M58.325,87.098c0.129,0.045,0.214,0.132,0.207,0.309C58.406,87.36,58.32,87.274,58.325,87.098z"/>
		<path fill="#FFFFFF" d="M58.223,85.546c-0.069,0.432-0.126,0.563,0.31,0.414c-0.452,0.481-1.278-0.154-1.446-0.827
			c-0.152,0.045,0.039,0.133,0,0.309c-0.159-0.129-0.372-0.655-0.516-0.205c-0.255-0.422-0.282-0.842-1.241-0.931
			c-0.16-0.366,0.351-0.062,0.31-0.312c0.089,0.327,0.568,0.26,0.621,0.622C56.943,84.502,57.526,85.335,58.223,85.546z
			 M57.396,85.546c0.214,0.32,0.624-0.271,0.206,0c-0.017-0.121,0.02-0.294-0.103-0.31C57.504,85.379,57.449,85.462,57.396,85.546z"
			/>
		<path d="M57.811,59.395c0.335,0.102-0.812,0.467-0.725,0c-0.919,0.164-2.061-0.718-3.307-0.207
			c-0.106,0.044-0.036,0.17-0.104,0.207c-0.13,0.069-0.485-0.1-0.622,0.207c0.09-0.636,1.029-1.314,2.069-1.345
			c-0.102,0.443,0.29,0.398,0.31,0.724c0.541-0.152,1.053,0.408,1.963,0.207C57.573,59.284,57.604,59.608,57.811,59.395z"/>
		<path d="M57.602,85.546c0.418-0.271,0.008,0.32-0.206,0c0.054-0.084,0.108-0.167,0.104-0.31
			C57.621,85.252,57.585,85.425,57.602,85.546z"/>
		<path d="M57.499,87.924c-0.633-0.31,0.188-0.462,0.103,0C57.568,87.924,57.533,87.924,57.499,87.924z"/>
		<path d="M56.776,65.392c0.097,0.279,0.521,0.233,0.825,0.309c-0.632,0.429-1.493,0.165-2.169,0.206
			c-0.264,0.017-0.792,0.059-1.24,0.103c-0.163,0.017-0.578-0.015-0.62,0.207c-0.291-0.123-0.713-0.112-1.14-0.102
			c0.335-0.665,1.266-0.736,1.554-1.449c0.345,0.069,0.505,0.322,0.825,0.414c0.671-0.281,1.477,0.169,2.066-0.103
			C57.305,64.927,56.782,65.235,56.776,65.392z"/>
		<path fill="#FFFFFF" d="M56.362,87.406c-0.236-0.111-0.039-0.649,0.31-0.516C56.579,87.071,56.422,87.191,56.362,87.406z"/>
		<path fill="#FFFFFF" d="M55.432,83.892c-0.696,0.11-1.223-0.841-1.445-1.551C54.744,83.027,54.725,83.312,55.432,83.892z"/>
		<path fill="#FFFFFF" d="M54.192,76.656c0.066-0.291,0.119,0.238,0.104,0.312C54.247,77.174,54.099,77.051,54.192,76.656z"/>
		<path d="M54.126,77.402l0.005,0.023C54.129,77.42,54.128,77.412,54.126,77.402z"/>
		<path d="M54.1,77.244l0.009,0.051C54.105,77.279,54.103,77.263,54.1,77.244z"/>
		<path d="M54.078,77.114l0.006,0.035C54.082,77.136,54.08,77.123,54.078,77.114z"/>
		<path fill="#FFFFFF" d="M51.891,77.698c-0.012,0.002-0.02,0.004-0.025,0.006L51.891,77.698z M48.299,85.854
			c-0.131-0.455,0.017-1.186-0.31-1.445C48.043,84.939,48.049,85.52,48.299,85.854z M51.51,77.754
			c0.009-0.038,0.024-0.067,0.07-0.066c0.01,0.026,0.02,0.058,0.031,0.093c-0.021,0.157-0.18,0.174-0.105,0.427
			c0.12-0.017,0.294,0.019,0.308-0.103c-0.096-0.028-0.157-0.194-0.202-0.324c0.003-0.025,0.003-0.055-0.003-0.09
			c-0.011-0.002-0.02-0.003-0.028-0.003C51.548,77.602,51.528,77.582,51.51,77.754z M48.753,86.063
			c-0.001-0.007-0.002-0.014-0.003-0.019C48.751,86.049,48.752,86.056,48.753,86.063z M48.768,86.133
			c0.002,0.014,0.005,0.029,0.009,0.046C48.773,86.162,48.771,86.147,48.768,86.133z M52.021,77.482
			c0.141-0.405-0.202-0.6-0.311-0.929C51.647,76.97,51.83,77.178,52.021,77.482z M48.767,86.128
			c-0.002-0.013-0.005-0.025-0.007-0.035c-0.001-0.007-0.002-0.012-0.004-0.016c0.002,0.004,0.003,0.01,0.004,0.016
			C48.762,86.103,48.764,86.114,48.767,86.128z M51.296,87.014c-0.035,0.345,0.149,0.396,0.001,0.91c-0.481,0-0.964,0-1.446,0
			c-0.042-0.249,0.188-0.225,0.104-0.518c-0.155,0.089-0.15,0.334-0.206,0.518c-0.036,0-0.071,0-0.104,0
			c0.016-0.188-0.126-0.219-0.104-0.414c-0.289,0.102,0.151,0.277-0.103,0.414c-0.551,0-1.103,0-1.653,0
			c-0.037-0.48-0.134-0.901-0.312-1.241c-0.081,0.599,0.054,0.778,0.104,1.241c-0.069,0-0.137,0-0.209,0c0-0.069,0-0.137,0-0.209
			c-0.205-0.032-0.32,0.021-0.309,0.209c-0.446,0-0.896,0-1.343,0c-0.061-0.492-0.612-1.038-0.31-1.551
			c0.256,0.095,0.251,0.981,0.516,0.725c-0.568-0.954-0.359-2.22-0.103-2.895c0.021,0.115,0.115,0.161,0.205,0.206
			c0.062-0.38-0.717-0.515-0.205-0.723c-0.149,0.182-0.097,0.234,0.205,0.205c-0.038-0.395-0.144-0.401,0.209-0.516
			c-0.153-0.326-0.095-0.778,0.103-1.033c0.012,0.126,0.032,0.244,0.207,0.206c-0.157-0.655,0.684-1.203,0.104-1.345
			c0.031-0.138,0.146-0.196,0.104-0.412c0.146-0.04,0.172-0.124,0.308,0c-0.007-0.243-0.441-0.583-0.102-0.829
			c-0.089,0.213,0.09,0.643,0.206,0.311c-0.396-0.717,0.472-1.021,0.413-1.963c0.394-0.089,0.52-0.443,0.724-0.723
			c0.016,0.192,0.067,0.344,0.207,0.413c0.058-0.15-0.122-0.534,0.104-0.518c-0.04,0.433,0.374,0.113,0.412,0
			c0.279,0.03,0.185,0.435,0.413,0.518c-0.02-0.225,0.367-0.048,0.518-0.104c0.002-0.243-0.178-0.304-0.104-0.619
			c0.542,0.206,0.225-0.172,0.517-0.414c-0.429-0.015-0.021-0.068,0-0.207c-0.123-0.051-0.235-0.11-0.309-0.206
			c0.134-0.256-0.232-0.502,0-0.517c0.199,0.516,0.598,0.881,0.204,1.24c0.573-0.154,0.226,1.147,0.622,0.827
			c-0.156-0.225-0.178-0.583-0.207-0.931c0.138,0,0.274,0,0.413,0c0-0.574-0.583-1.472-0.206-1.756
			c0.088,0.887,0.729,1.417,0.412,2.169c0.367-0.004,0.212-0.504,0.209-0.62c-0.03-0.771-0.503-1.335-0.311-1.961
			c0.114,0.205,0.17,0.744,0.413,0.515c-0.08,0.071-0.232,0.576,0,0.619c0.17-0.413,0.015-0.582-0.103-1.033
			c0.19,0.015,0.343,0.067,0.412,0.207c-0.033,0.139-0.147,0.197-0.104,0.413c0.293,0.021,0.261-0.407,0.416,0
			c-0.265-0.108-0.461,0.349-0.208,0.413c0.042-0.129,0.132-0.21,0.311-0.207c-0.016,0.257-0.021,0.502,0.206,0.518
			c-0.013-0.186,0.103-0.243,0.31-0.207c0.143,0.49-0.105,0.947,0.31,1.344c-0.308,0.417-0.216,0.981,0,1.446
			c-0.314-0.34-0.131,0.29-0.205,0.414c-0.045,0.072-0.217-0.036-0.207,0.104c0,0.017,0.301-0.021,0.309,0
			c0.123,0.275,0.07,1.52,0.415,1.86c-0.104,0-0.124,0.084-0.207,0.104c-0.351-0.733-0.038-1.271-0.517-1.55
			c0.002,0.001,0.017,0.303-0.104,0.31c-0.018,0.001-0.178-0.334-0.208-0.104c0.244,0.506-0.026,1.619-0.411,2.273
			c0.121,0.018,0.293-0.016,0.311,0.104c0.031,0.238-0.299,0.114-0.311,0.31c0.441,0.157-0.209,0.355,0.104,0.725
			c-0.115,0.01-0.162-0.151-0.207,0c0.336,0.347-0.334,0.755-0.104,1.137c-0.004-0.109,0.049-0.263,0.104-0.104
			c-0.375,0.301-0.145,1.038-0.31,1.757c-0.117,0.01-0.163-0.149-0.207,0c0.019,0.272,0.09,0.287-0.104,0.518
			C51.786,86.792,51.274,87.342,51.296,87.014z M48.817,86.38c0.003,0.017,0.006,0.033,0.009,0.049
			C48.823,86.412,48.82,86.396,48.817,86.38z M48.79,86.25c0.008,0.036,0.016,0.076,0.025,0.123
			C48.807,86.33,48.799,86.289,48.79,86.25z M50.185,86.926c0.013,0.026,0.028,0.062,0.05,0.108
			C50.218,86.997,50.2,86.958,50.185,86.926z M50.162,86.876c0.003,0.006,0.007,0.016,0.013,0.025
			C50.17,86.893,50.166,86.883,50.162,86.876z M48.865,86.619c0.007,0.04,0.014,0.072,0.02,0.098
			C48.878,86.689,48.872,86.656,48.865,86.619z M48.895,86.769c0.001,0.008,0.002,0.015,0.003,0.02
			C48.897,86.784,48.896,86.777,48.895,86.769z M50.156,86.862C50.152,86.854,50.151,86.854,50.156,86.862L50.156,86.862z
			 M50.289,87.156c0-0.001-0.001-0.004-0.003-0.008C50.288,87.153,50.289,87.155,50.289,87.156z M49.56,84.88l-0.009,0.019
			l-0.012,0.027c0.005-0.011,0.009-0.02,0.012-0.027C49.555,84.891,49.558,84.884,49.56,84.88z M50.258,87.087
			c-0.007-0.017-0.014-0.034-0.023-0.052C50.242,87.052,50.249,87.068,50.258,87.087z M52.952,79.758
			c0.159-0.255-0.354-0.305-0.312-0.102c0.064,0.005,0.124,0.014,0.104,0.102C52.814,79.758,52.883,79.758,52.952,79.758z
			 M52.745,78.104c0.125-0.012,0.245-0.032,0.207-0.208c-0.122,0.017-0.292-0.017-0.312,0.104
			C52.705,78.007,52.765,78.016,52.745,78.104z M52.641,76.76c0-0.069,0-0.138,0-0.206c-0.069,0-0.136,0-0.208,0
			c0,0.068,0,0.137,0,0.206C52.505,76.76,52.571,76.76,52.641,76.76z M52.021,76.243c-0.06,0.445,0.198,1.104,0.411,0.931
			C52.208,76.838,52.354,76.225,52.021,76.243z M52.125,80.48c0.136-0.137,0.063-0.311-0.104-0.413
			C52.038,80.224,51.984,80.449,52.125,80.48z M51.918,79.034c-0.105-0.419,0.069-0.476-0.207-0.724
			C51.695,78.638,51.708,78.935,51.918,79.034z M51.195,77.69c0.136-0.287-0.409-0.355-0.104-0.207
			C51.083,77.628,51.114,77.878,51.195,77.69z M50.367,84.513c0.029-0.141-0.063-0.402-0.104-0.207
			C50.235,84.444,50.328,84.709,50.367,84.513z M50.367,78.104c-0.063-0.214,0.165-0.72-0.207-0.621
			C50.255,77.664,50.195,78,50.367,78.104z M49.851,82.549c0.232,0.044-0.015,0.564,0.31,0.517
			C50.083,82.924,50.079,82.195,49.851,82.549z M49.954,86.683c-0.204,0.031-0.204-0.139-0.311-0.206c0,0.104,0,0.206,0,0.311
			C49.766,86.771,49.938,86.804,49.954,86.683z M49.23,84.926c-0.272,0.022-0.119-0.902-0.415-0.517
			C48.947,84.528,49.023,85.225,49.23,84.926z M48.921,82.136c-0.097,0.361,0.329,1.102,0.206,0.826
			C49.106,82.7,49.035,81.96,48.921,82.136z M48.611,87.715c0.092-0.015,0.052-0.569-0.104-0.205
			C48.479,87.573,48.548,87.728,48.611,87.715z M48.195,82.858c0.099,0.354-0.015,1.46,0.312,1.24
			C48.254,83.834,48.544,83.026,48.195,82.858z M47.989,86.993c-0.197,0.45,0.476,0.815,0,0.104
			C48.048,87.098,48.107,87.013,47.989,86.993z M47.989,86.683c-0.071-0.494-0.141-1.255-0.206-1.446
			C47.611,85.677,47.727,86.214,47.989,86.683z M47.472,86.581c-0.097-0.193,0.312-0.347,0-0.414
			C47.442,86.229,47.216,86.564,47.472,86.581z M47.267,87.614c0.03-0.242,0.22-0.445-0.104-0.517
			C47.22,87.247,47.043,87.631,47.267,87.614z M45.611,85.236c0.028,0.188,0.226,0.728,0.311,0.517
			C45.75,85.59,46.056,85.279,45.611,85.236z"/>
		<path d="M52.641,79.656c-0.042-0.203,0.471-0.153,0.312,0.102c-0.069,0-0.138,0-0.207,0C52.765,79.67,52.705,79.661,52.641,79.656
			z"/>
		<path d="M52.952,77.896c0.038,0.176-0.082,0.196-0.207,0.208c0.02-0.089-0.04-0.098-0.104-0.104
			C52.66,77.88,52.83,77.913,52.952,77.896z"/>
		<path d="M52.641,76.554c0,0.068,0,0.137,0,0.206c-0.069,0-0.136,0-0.208,0c0-0.069,0-0.138,0-0.206
			C52.505,76.554,52.571,76.554,52.641,76.554z"/>
		<path d="M52.433,77.174c-0.213,0.173-0.471-0.485-0.411-0.931C52.354,76.225,52.208,76.838,52.433,77.174z"/>
		<path d="M52.021,80.067c0.167,0.103,0.239,0.276,0.104,0.413C51.984,80.449,52.038,80.224,52.021,80.067z"/>
		<path d="M51.711,76.554c0.108,0.329,0.451,0.523,0.311,0.929C51.83,77.178,51.647,76.97,51.711,76.554z"/>
		<path fill="#FFFFFF" d="M51.891,77.698l-0.025,0.006C51.871,77.702,51.879,77.7,51.891,77.698z"/>
		<path d="M51.711,78.311c0.276,0.248,0.102,0.305,0.207,0.724C51.708,78.935,51.695,78.638,51.711,78.311z"/>
		<path d="M51.813,78.104c-0.014,0.121-0.188,0.086-0.308,0.103c-0.074-0.253,0.085-0.27,0.105-0.427
			C51.656,77.91,51.718,78.076,51.813,78.104z"/>
		<path d="M51.608,77.69c0.006,0.035,0.006,0.064,0.003,0.09c-0.012-0.035-0.021-0.066-0.031-0.093
			C51.589,77.688,51.598,77.688,51.608,77.69z"/>
		<path d="M51.58,77.688c-0.046-0.001-0.062,0.028-0.07,0.066C51.528,77.582,51.548,77.602,51.58,77.688z"/>
		<path d="M51.091,77.483c-0.305-0.148,0.24-0.08,0.104,0.207C51.114,77.878,51.083,77.628,51.091,77.483z"/>
		<path fill="#FFFFFF" d="M50.885,76.656c0,0.104,0,0.207,0,0.312c-0.104,0-0.207,0-0.312,0c-0.027-0.168,0.1-0.179,0.104-0.312
			C50.747,76.656,50.815,76.656,50.885,76.656z"/>
		<path fill="#FFFFFF" d="M50.367,75.519c0.23,0.074,0.344,0.486,0.206,0.621C50.393,76.045,50.347,75.816,50.367,75.519z"/>
		<path d="M50.263,84.306c0.041-0.195,0.134,0.066,0.104,0.207C50.328,84.709,50.235,84.444,50.263,84.306z"/>
		<path d="M50.16,77.483c0.372-0.099,0.144,0.407,0.207,0.621C50.195,78,50.255,77.664,50.16,77.483z"/>
		<path fill="#FFFFFF" d="M50.286,87.148c0.002,0.004,0.003,0.007,0.003,0.008C50.289,87.155,50.288,87.153,50.286,87.148z"/>
		<path fill="#FFFFFF" d="M50.258,87.087c-0.009-0.019-0.016-0.035-0.023-0.052C50.244,87.053,50.251,87.07,50.258,87.087z"/>
		<path fill="#FFFFFF" d="M50.185,86.926c0.016,0.032,0.033,0.071,0.05,0.108C50.213,86.988,50.197,86.952,50.185,86.926z"/>
		<path fill="#FFFFFF" d="M50.162,86.876c0.004,0.007,0.008,0.017,0.013,0.025C50.169,86.892,50.165,86.882,50.162,86.876z"/>
		<path fill="#FFFFFF" d="M50.156,86.862C50.151,86.854,50.152,86.854,50.156,86.862L50.156,86.862z"/>
		<path d="M50.16,83.065c-0.324,0.048-0.077-0.473-0.31-0.517C50.079,82.195,50.083,82.924,50.16,83.065z"/>
		<path d="M49.954,87.406c0.085,0.293-0.146,0.269-0.104,0.518c-0.035,0-0.069,0-0.103,0C49.804,87.74,49.799,87.495,49.954,87.406z
			"/>
		<path fill="#FFFFFF" d="M49.954,28.798c0,0.136,0,0.276,0,0.412c-0.068,0-0.139,0-0.206,0c0-0.136,0-0.276,0-0.412
			C49.815,28.798,49.886,28.798,49.954,28.798z"/>
		<path d="M49.644,86.477c0.106,0.067,0.106,0.237,0.311,0.206c-0.017,0.121-0.188,0.088-0.311,0.104
			C49.644,86.683,49.644,86.581,49.644,86.477z"/>
		<path d="M49.65,76.374c-0.001-0.003-0.002-0.008-0.003-0.013C49.648,76.366,49.649,76.37,49.65,76.374z"/>
		<path d="M49.647,76.361c-0.002-0.004-0.003-0.009-0.004-0.015c-0.009-0.035-0.017-0.063-0.022-0.089
			C49.631,76.294,49.64,76.333,49.647,76.361z"/>
		<path d="M49.539,87.51c-0.021,0.195,0.12,0.227,0.104,0.414c-0.07,0-0.137,0-0.207,0C49.69,87.787,49.25,87.611,49.539,87.51z"/>
		<path fill="#FFFFFF" d="M49.644,77.483c0,0.069,0,0.139,0,0.207c-0.07,0-0.137,0-0.207,0c0-0.068,0-0.138,0-0.207
			C49.507,77.483,49.573,77.483,49.644,77.483z"/>
		<path d="M49.613,76.225c0.003,0.011,0.006,0.022,0.008,0.033C49.618,76.246,49.615,76.234,49.613,76.225z"/>
		<path d="M49.601,76.174c0.001,0.006,0.003,0.013,0.006,0.021C49.604,76.186,49.602,76.18,49.601,76.174z"/>
		<path d="M49.598,76.162c0.001,0.002,0.002,0.006,0.003,0.01C49.6,76.168,49.599,76.165,49.598,76.162z"/>
		<path fill="#FFFFFF" d="M49.551,84.898l0.009-0.019C49.558,84.884,49.555,84.891,49.551,84.898z"/>
		<path fill="#FFFFFF" d="M49.539,84.926l0.012-0.027C49.548,84.906,49.544,84.915,49.539,84.926z"/>
		<path d="M48.815,84.409c0.296-0.386,0.143,0.539,0.415,0.517C49.023,85.225,48.947,84.528,48.815,84.409z"/>
		<path d="M49.127,82.962c0.123,0.275-0.303-0.465-0.206-0.826C49.035,81.96,49.106,82.7,49.127,82.962z"/>
		<path fill="#FFFFFF" d="M48.895,86.769c0.001,0.009,0.003,0.016,0.003,0.02C48.896,86.783,48.896,86.776,48.895,86.769z"/>
		<path fill="#FFFFFF" d="M48.865,86.619c0.007,0.037,0.013,0.07,0.02,0.098C48.879,86.691,48.872,86.659,48.865,86.619z"/>
		<path fill="#FFFFFF" d="M48.826,86.429c-0.003-0.016-0.006-0.032-0.009-0.049C48.82,86.396,48.823,86.412,48.826,86.429z"/>
		<path fill="#FFFFFF" d="M48.815,86.373c-0.01-0.047-0.018-0.087-0.025-0.123C48.799,86.289,48.807,86.33,48.815,86.373z"/>
		<path fill="#FFFFFF" d="M48.768,86.133c0.003,0.015,0.006,0.029,0.009,0.046C48.772,86.162,48.77,86.146,48.768,86.133z"/>
		<path fill="#FFFFFF" d="M48.76,86.093c0.002,0.01,0.005,0.022,0.007,0.035C48.764,86.114,48.762,86.103,48.76,86.093z"/>
		<path fill="#FFFFFF" d="M48.76,86.093c-0.001-0.006-0.002-0.012-0.004-0.016C48.758,86.081,48.759,86.086,48.76,86.093z"/>
		<path fill="#FFFFFF" d="M48.75,86.045c0.001,0.005,0.002,0.012,0.003,0.019C48.752,86.056,48.751,86.049,48.75,86.045z"/>
		<path d="M48.507,87.51c0.156-0.364,0.196,0.19,0.104,0.205C48.548,87.728,48.479,87.573,48.507,87.51z"/>
		<path d="M48.507,84.099c-0.326,0.22-0.213-0.886-0.312-1.24C48.544,83.026,48.254,83.834,48.507,84.099z"/>
		<path d="M47.989,84.409c0.326,0.26,0.179,0.99,0.31,1.445C48.049,85.52,48.043,84.939,47.989,84.409z"/>
		<path d="M48.195,43.58c-0.223,0.019-0.327-0.084-0.311-0.31c0.104,0.003,0.083,0.125,0.104,0.207
			c0.102-0.004,0.08-0.125,0.102-0.207C48.213,43.286,48.181,43.458,48.195,43.58z"/>
		<path fill="#FFFFFF" d="M48.402,73.763c-0.024,0.181-0.177,0.235-0.413,0.206C48.003,73.587,48.141,73.708,48.402,73.763z"/>
		<path d="M47.989,87.098c0.476,0.711-0.197,0.346,0-0.104C48.107,87.013,48.048,87.098,47.989,87.098z"/>
		<path d="M47.783,85.236c0.065,0.191,0.135,0.952,0.206,1.446C47.727,86.214,47.611,85.677,47.783,85.236z"/>
		<path d="M47.783,87.924c-0.068,0-0.137,0-0.207,0c-0.051-0.463-0.186-0.643-0.104-1.241
			C47.649,87.022,47.746,87.443,47.783,87.924z"/>
		<path fill="#FFFFFF" d="M47.681,73.763c0.432,0.069,0.046,0.642-0.209,0.31C47.54,73.968,47.711,73.966,47.681,73.763z"/>
		<path d="M47.472,86.167c0.312,0.067-0.097,0.221,0,0.414C47.216,86.564,47.442,86.229,47.472,86.167z"/>
		<path fill="#FFFFFF" d="M46.957,73.969c0.009-0.132,0.616-0.006,0.515,0.31C47.215,74.203,47.146,74.267,46.957,73.969z"/>
		<path d="M47.367,87.715c0,0.072,0,0.14,0,0.209c-0.101,0-0.204,0-0.309,0C47.047,87.736,47.162,87.683,47.367,87.715z"/>
		<path d="M47.163,87.098c0.323,0.071,0.134,0.274,0.104,0.517C47.043,87.631,47.22,87.247,47.163,87.098z"/>
		<path fill="#FFFFFF" d="M46.751,75.418c0.154,0.179,0.534-0.194,0.516,0.309c-0.184-0.09-0.32-0.347-0.414,0
			c-0.089,0.02-0.098-0.04-0.102-0.104C46.751,75.554,46.751,75.487,46.751,75.418z"/>
		<path d="M47.059,41.719C47.507,41.761,46.952,42.317,47.059,41.719L47.059,41.719z"/>
		<path d="M47.059,40.892c0.073,0.07-0.407,0.284-0.308,0.104C46.764,40.968,46.971,40.803,47.059,40.892z"/>
		<path d="M46.853,41.201c0,0.07,0,0.138,0,0.207c-0.068,0-0.138,0-0.206,0c0-0.069,0-0.136,0-0.207
			C46.715,41.201,46.784,41.201,46.853,41.201z"/>
		<path d="M46.751,40.066c0.198-0.042,0.15,0.469-0.104,0.309c0-0.069,0-0.138,0-0.207C46.733,40.186,46.743,40.128,46.751,40.066z"
			/>
		<path fill="#FFFFFF" d="M46.646,41.926c0.153,0.347-0.18,1.486-0.104,0.207c-0.058-0.233-0.162,0.125-0.31-0.103
			C46.038,42.13,46.359,41.9,46.646,41.926z"/>
		<path fill="#FFFFFF" d="M46.336,78.207c0.251,0.06,0.229,0.392,0.311,0.621c-0.093-0.064-0.185-0.125-0.208,0
			c-0.115-0.021-0.055-0.104,0-0.104C46.524,78.431,46.293,78.456,46.336,78.207z"/>
		<path fill="#FFFFFF" d="M46.336,39.653c0.072-0.014,0.151,0.225,0.103,0.309c-0.002,0.004-0.004,0.007-0.007,0.01
			c-0.005,0.008-0.012,0.016-0.017,0.021C46.312,40.083,46.209,39.673,46.336,39.653z"/>
		<path fill="#FFFFFF" d="M46.438,80.895c0,0.068,0,0.138,0,0.208c-0.067,0-0.138,0-0.205,0c0-0.07,0-0.14,0-0.208
			C46.301,80.895,46.371,80.895,46.438,80.895z"/>
		<path fill="#FFFFFF" d="M46.129,79.552c0.323-0.148,0.323,0.768,0,0.619C46.354,79.955,46.076,79.877,46.129,79.552z"/>
		<path fill="#FFFFFF" d="M46.024,82.341c0.031-0.384,0.26,0.306,0,0.208C45.854,82.792,46.035,82.51,46.024,82.341z"/>
		<path fill="#FFFFFF" d="M45.819,80.792c0.186-0.343,0.511,0.444,0,0.311C45.89,81.019,45.98,80.818,45.819,80.792z"/>
		<path d="M45.922,85.753c-0.085,0.211-0.282-0.328-0.311-0.517C46.056,85.279,45.75,85.59,45.922,85.753z"/>
		<path fill="#FFFFFF" d="M45.819,81.515c-0.002,0.291-0.282-0.246-0.208,0.207c-0.15-0.267-0.221-0.543-0.62-0.311
			c0-0.104,0-0.207,0-0.309c0.218-0.045,0.275,0.07,0.415,0.102c0.062-0.213-0.166-0.719,0.205-0.619
			c0.01,0.146,0.02,0.293-0.102,0.31C45.875,81.053,45.473,81.336,45.819,81.515z"/>
		<path fill="#FFFFFF" d="M45.716,41.201c0.103,0.187-0.173-0.053-0.263-0.074C45.443,40.934,45.611,40.815,45.716,41.201z"/>
		<path fill="#FFFFFF" d="M45.611,80.171c0,0.103,0,0.208,0,0.31c-0.102,0-0.205,0-0.31,0c0-0.102,0-0.207,0-0.31
			C45.406,80.171,45.51,80.171,45.611,80.171z"/>
		<path fill="#FFFFFF" d="M45.198,87.098c0.051,0.328,0.326,0.432,0.312,0.826c-0.104,0-0.208,0-0.312,0
			C45.452,87.491,44.922,87.417,45.198,87.098z"/>
		<path fill="#FFFFFF" d="M45.453,41.127c0.001,0.057,0.019,0.12,0.057,0.179C45.41,41.154,45.41,41.115,45.453,41.127z"/>
		<path fill="#FFFFFF" d="M45.198,81.411c0.378,0.13,0.022,0.769,0.208,0.93c-0.2,0.22-0.424-0.474-0.104-0.619
			c-0.044-0.153-0.134,0.04-0.311,0C45.028,81.586,45.174,81.56,45.198,81.411z"/>
		<path fill="#FFFFFF" d="M45.198,68.283c0.401,0.176-0.669,1.007-0.724,1.449c-0.175-0.039-0.194,0.08-0.206,0.205
			C44.127,69.346,45.055,68.933,45.198,68.283z"/>
		<path fill="#FFFFFF" d="M45.198,83.376c-0.165,0.3,0.19,0.267,0,0.723C45.216,83.858,44.834,83.455,45.198,83.376z"/>
		<path fill="#FFFFFF" d="M45.097,80.585c0.299,0.09,0.115,0.155,0.102,0.413c-0.229,0.057-0.146-0.198-0.311-0.206
			C44.917,80.679,45.094,80.721,45.097,80.585z"/>
		<path fill="#FFFFFF" d="M44.991,50.919c0.143,0.132,0.143,0.488,0,0.62c-0.328,0.089-0.318-0.164-0.517-0.208
			C44.495,51.041,44.655,50.892,44.991,50.919z"/>
		<path fill="#FFFFFF" d="M44.991,82.031c-0.04,0.492,0,0.897,0.207,1.138c-0.586-0.122-0.167-0.848-0.516-1.033
			C44.698,82.015,44.87,82.049,44.991,82.031z"/>
		<path d="M44.888,83.169c-0.325,0.246-0.075,0.281-0.103,0.825c-0.381,0.052,0.044-0.568-0.206-0.308
			c-0.161-0.025,0.061-0.386-0.205-0.518c-0.133,0.267-0.094,0.682,0.101,1.034c-0.603-0.273-0.516-1.59,0.104-1.758
			C44.78,82.72,44.273,83.021,44.888,83.169z"/>
		<path fill="#FFFFFF" d="M44.683,57.741c2.508,3.473,1.703,9.11-1.446,11.992c-1.984,1.812-5.123,3.229-8.686,2.479
			c-4.054-0.855-7.815-4.696-7.44-9.923c0.21-2.932,1.665-5.067,3.721-6.926c0.384-0.009,0.333-0.156,0.517,0.103
			c0.042-0.266,0.162-0.447,0.414-0.724c0.977-0.316,2.121-1.061,3.516-1.239c2.076-0.269,4.1,0.167,5.477,0.827
			c-0.178,0.094,0.689,0.215,1.034,0.413c0.057,0.033,0.132,0.265,0.208,0.311c0.108,0.066,0.218,0.027,0.308,0.104
			c0.123,0.104,0.136,0.279,0.311,0.413c0.007,0,0.325,0.041,0.518,0.208C43.69,56.259,44.159,57.014,44.683,57.741z M44.269,64.355
			c0.464-2.204-0.277-4.713-1.24-5.995c-1.726-2.298-4.346-3.378-7.132-2.997c-3.034,0.414-4.857,1.906-5.997,4.238
			c-0.162,0.33-0.427,0.664-0.517,0.93c-1.244,3.654,0.67,7.276,2.997,8.684c0.388,0.233,1.124,0.78,1.553,0.93
			C39.221,71.983,43.502,68.01,44.269,64.355z"/>
		<path fill="#FFFFFF" d="M44.579,84.822c-0.369,0.393,0.081,0.429,0,1.034C44.47,85.432,44.011,85.004,44.579,84.822z"/>
		<path fill="#FFFFFF" d="M44.475,82.031c0.144,0.033,0.088,0.259,0.104,0.414C44.217,82.536,44.401,82.106,44.475,82.031z"/>
		<path fill="#FFFFFF" d="M44.269,84.409c0.301-0.151,0.301,0.463,0,0.312C44.269,84.616,44.269,84.513,44.269,84.409z"/>
		<path fill="#FFFFFF" d="M44.166,85.441c0.279,0.316-0.238-0.28-0.207,0c-0.282-0.029,0.219-0.712-0.207-0.721
			c0.096-0.392,0.006-0.486,0.103-0.726C44.125,84.312,43.961,85.062,44.166,85.441z"/>
		<path fill="#FFFFFF" d="M44.269,85.649c-0.304,0.136,0.332,0.8-0.207,0.827C44.329,86.055,43.633,85.774,44.269,85.649z"/>
		<path fill="#FFFFFF" d="M43.959,61.979c0.51,4.693-3.584,8.515-8.269,7.959c-1.286-0.152-2.863-0.801-3.826-1.654
			c-0.85-0.753-1.526-1.828-1.756-3.101c1.424,4.337,7.143,5.917,10.957,2.999c1.494-1.145,2.868-3.311,2.583-6.203
			c-0.276-2.811-2.384-4.991-4.857-5.789c-0.141-0.045-0.592-0.017-0.622-0.309c1.785,0.428,3.396,1.266,4.344,2.48
			C43.185,59.223,43.812,60.648,43.959,61.979z"/>
		<path fill="#FFFFFF" d="M43.854,87.2c-0.043,0.131,0.391,0.88-0.103,0.414C43.933,87.403,43.673,87.411,43.854,87.2z"/>
		<path fill="#FFFFFF" d="M43.959,86.787c0,0.104,0,0.206,0,0.311c-0.229,0.057-0.147-0.199-0.312-0.207
			C43.667,86.769,43.836,86.803,43.959,86.787z"/>
		<path fill="#FFFFFF" d="M43.752,87.924c-0.034,0-0.069,0-0.104,0c0-0.034,0-0.069,0-0.104c-0.346,0.036-0.171-0.448-0.31-0.62
			c-0.176-0.179-0.405,0.151-0.413-0.31c0.182,0.259,0.17,0.072,0.413,0.207c-0.004-0.314-0.276-0.888,0-1.138
			c0.034,0.481,0.104,0.93,0.309,1.239C43.247,86.905,43.612,87.809,43.752,87.924z"/>
		<path fill="#FFFFFF" d="M43.028,87.406c0.2-0.041,0.151,0.472-0.104,0.309c0-0.068,0-0.136,0-0.205
			C43.013,87.529,43.023,87.47,43.028,87.406z"/>
		<path d="M42.304,84.721c0.347-0.108,0.161,0.32,0.208,0.516C42.356,85.147,42.36,84.903,42.304,84.721z"/>
		<path d="M42.201,83.994c0.18,0.097,0.229,0.325,0.207,0.622C42.26,84.487,42.214,84.26,42.201,83.994z"/>
		<path d="M41.892,84.409c0.235,0.522,0.246,1.271,0.31,1.964c-0.24-0.38-0.111-1.128-0.518-1.343
			C41.745,84.813,41.941,84.733,41.892,84.409z"/>
		<path d="M41.684,87.2C41.952,86.844,41.935,87.73,41.684,87.2L41.684,87.2z"/>
		<path d="M41.374,86.683c0.03,0.363,0.459-0.186,0.414,0.104c-0.415,0.485-0.141,0.404-0.311,1.137c-0.068,0-0.138,0-0.205,0
			c-0.015-0.188,0.126-0.219,0.102-0.414c-0.137,0-0.274,0-0.414,0c-0.012,0.186,0.127,0.218,0.104,0.414c-0.138,0-0.276,0-0.413,0
			c0.023-0.08,0.087-0.119,0.206-0.104c-0.328-0.624-0.716-2.13,0.517-2.379c0.019-0.336-0.242-0.495,0.205-0.516
			c0.098,0.83,0.173,1.059,0.209,1.655C41.611,86.552,41.38,86.359,41.374,86.683z M41.272,86.063c-0.069,0.239,0.404,0.224,0.307,0
			C41.546,85.979,41.307,85.938,41.272,86.063z"/>
		<path fill="#FFFFFF" d="M41.579,86.063c0.098,0.224-0.376,0.239-0.307,0C41.307,85.938,41.546,85.979,41.579,86.063z"/>
		<path fill="#FFFFFF" d="M41.374,87.51c0.024,0.195-0.116,0.227-0.102,0.414c-0.07,0-0.139,0-0.208,0
			c0.022-0.196-0.116-0.229-0.104-0.414C41.1,87.51,41.237,87.51,41.374,87.51z"/>
		<path fill="#FFFFFF" d="M37.239,73.142c0.024-0.149,0.851-0.239,0.724,0.104C37.829,73.104,37.516,73.144,37.239,73.142z"/>
		<path fill="#FFFFFF" d="M38.064,55.88c-0.268,0.262-0.743-0.145-1.239,0C36.642,55.715,37.907,55.715,38.064,55.88z"/>
		<path d="M30.211,60.016c-0.777,1.399-0.912,3.959-0.207,5.271c0.106-0.475-0.159-0.888-0.208-1.346
			C29.643,62.479,29.987,61.044,30.211,60.016z M35.666,55.879c0.008,0.001,0.016,0.001,0.024,0.001
			c0.066,0.001,0.096,0.001,0.102,0.001C35.782,55.881,35.731,55.88,35.666,55.879z M36.101,61.152
			c-0.409,0.411-0.487,0.331-0.62,0.826c0.017-0.053-0.094-0.119-0.104,0c0.266,0.385,0.248,0.878,0.519,1.447
			c0.468,0.12,1.843-0.21,1.238-0.827c0.372,0.337,0.019-0.412-0.167-0.255c0.188-0.279-0.3-0.396-0.142-0.882
			C36.588,61.355,36.493,61.106,36.101,61.152z M43.028,58.36c0.963,1.282,1.704,3.791,1.24,5.995
			c-0.767,3.654-5.048,7.628-10.336,5.789c-0.429-0.149-1.165-0.696-1.553-0.93c-2.327-1.407-4.24-5.029-2.997-8.684
			c0.09-0.266,0.354-0.6,0.517-0.93c1.139-2.332,2.963-3.825,5.997-4.238C38.683,54.982,41.303,56.062,43.028,58.36z M35.69,69.938
			c4.685,0.556,8.779-3.266,8.269-7.959c-0.146-1.33-0.774-2.756-1.447-3.618c-0.948-1.214-2.559-2.052-4.344-2.48
			c0.03,0.292,0.481,0.264,0.622,0.309c2.474,0.798,4.581,2.979,4.857,5.789c0.285,2.893-1.089,5.059-2.583,6.203
			c-3.813,2.918-9.532,1.338-10.957-2.999c0.23,1.272,0.907,2.348,1.756,3.101C32.827,69.137,34.404,69.785,35.69,69.938z
			 M36.826,55.88c0.496-0.145,0.971,0.262,1.239,0C37.907,55.715,36.642,55.715,36.826,55.88z M36.101,55.88
			c-0.096,0.181,0.382-0.033,0.312-0.104C36.324,55.688,36.119,55.852,36.101,55.88z M30.832,58.98
			c0.277-0.045,0.739-0.85,0.517-0.724c-0.294,0.501-1.046,1.088-0.93,1.655C30.452,59.498,30.845,59.442,30.832,58.98z
			 M30.625,61.152c0.189-0.538-0.395,0.754-0.103,0.723C30.664,61.742,30.623,61.427,30.625,61.152z M30.625,64.149
			c-0.233-0.609-0.022-1.33-0.311-1.447C30.428,63.047,30.215,63.854,30.625,64.149z"/>
		<path fill="#FFFFFF" d="M36.967,62.345c-0.013,0.012-0.026,0.027-0.037,0.048C36.944,62.376,36.957,62.36,36.967,62.345z
			 M36.967,62.344c0.186-0.157,0.54,0.592,0.167,0.255c0.604,0.617-0.77,0.947-1.238,0.827c-0.271-0.569-0.253-1.062-0.519-1.447
			c0.009-0.119,0.12-0.053,0.104,0c0.133-0.495,0.211-0.415,0.62-0.826c0.392-0.046,0.487,0.203,0.725,0.31
			C36.667,61.948,37.155,62.064,36.967,62.344z"/>
		<path d="M36.93,62.393c0.011-0.021,0.024-0.036,0.037-0.048C36.957,62.36,36.944,62.376,36.93,62.393z"/>
		<path fill="#FFFFFF" d="M36.722,73.039c0.376,0.315-0.568,0.184-0.826,0.206C36.219,72.901,36.467,73.249,36.722,73.039z"/>
		<path fill="#FFFFFF" d="M36.413,55.777c0.07,0.07-0.408,0.284-0.312,0.104C36.119,55.852,36.324,55.688,36.413,55.777z"/>
		<path d="M35.792,55.881c-0.006,0-0.036,0-0.102-0.001c-0.008,0-0.016,0-0.024-0.001C35.731,55.88,35.782,55.881,35.792,55.881z"/>
		<path fill="#FFFFFF" d="M25.146,48.645c0.447-0.307,1.024-0.694,0.722-1.447c0.411,0.482,0.087-0.297,0.518-0.414
			c-0.077-0.095-0.188-0.156-0.31-0.207c0.281-0.938,0.243-1.349-0.208-2.066c0.149,0.116,0.253,0.112,0.309-0.103
			c-0.053-0.159-0.107-0.006-0.101,0.103c-0.308-0.173-0.034-0.473,0.101-0.723c-0.608-1.63-1.56-2.398-1.445-4.134
			c0.513-0.155,0.632-0.183,0.827-0.517c0.302,0.423,0.542-0.271,0.517,0.309c0.779-0.825,1.846,0.584,2.479,0.517
			c0.034,0.367,1.201,0.367,1.655,0.104c0.245,0.681,1.029-0.156,1.239,0.516c0.368,0.01-0.069-0.326,0.516-0.207
			c0.018,0.258-0.158,0.323-0.309,0.413c0.151,0.104,0.499,0.122,0.723,0.207c-0.062,0.092-0.124,0.185,0,0.206
			c-0.214,0.128-0.424,0.203-0.101,0.416c-0.026,0.158-0.385-0.062-0.517,0.206c0.364,0.126,0.501-0.095,0.826-0.103
			c0.435-0.014,0.641,0.091,0.621,0.103c0.411-0.245,0.703,0.081,1.239,0.104c0.046,0.195-0.141,0.624,0.207,0.516
			c-0.151,0.305-0.566-0.246-0.517,0.312c-0.1-0.003-0.081-0.127-0.103-0.208c-0.122,0.017-0.088,0.187-0.103,0.31
			c-0.4,0.044-0.368,0.114-0.62-0.102c0.125,0.277-0.459,0.528-0.725,0.309c-0.014,0.201-1.175,0.504-1.24,0.517
			c-0.062,0.013-0.162,0.11-0.207-0.104c-0.127,0.046-0.212,0.132-0.207,0.311c1.104-0.129,2.842-0.067,4.031-0.207
			c0.151,0.044-0.012,0.091,0,0.207c0.319,0.076,0.198-0.284,0.516-0.207c-0.257,0.379,0.131-0.02,0.726,0.104
			c-0.018,0.19-0.351,0.064-0.414,0.206c-0.796-0.104-1.434-0.009-2.584,0.207c-0.339,0.065-0.784-0.049-1.034,0
			c-0.333,0.069-0.578,0.33-0.827,0.415c-0.91,0.31-1.646,0.245-2.17,0.931c-0.469,0.613-0.637,1.513-1.137,2.688
			c-0.041,0.094-0.158,0.216-0.31,0.206c-0.417,1.064-1.47,1.494-2.688,1.758C25.044,49.346,25.148,49.331,25.146,48.645z
			 M30.521,43.993c0.178,0.004,0.265-0.08,0.31-0.207C30.668,43.796,30.473,43.773,30.521,43.993z"/>
		<path d="M34.827,73.092c-0.003-0.003-0.007-0.007-0.013-0.011C34.819,73.085,34.823,73.089,34.827,73.092z"/>
		<path d="M34.79,73.057c-0.013-0.01-0.029-0.024-0.048-0.043C34.758,73.029,34.775,73.044,34.79,73.057z"/>
		<path d="M34.666,72.944c-0.003-0.002-0.007-0.005-0.011-0.009c-0.03-0.027-0.054-0.048-0.071-0.065
			C34.606,72.891,34.635,72.916,34.666,72.944z"/>
		<path fill="#FFFFFF" d="M33.001,40.996c-0.271-0.375-0.347,0.091-0.621-0.104C32.485,40.632,32.918,40.614,33.001,40.996z"/>
		<path fill="#FFFFFF" d="M37.551,46.061c-0.133-0.212-0.166-0.524-0.519-0.517c-0.302,0.087,0.136,0.26,0,0.517
			c-0.263-0.048-0.475-0.146-0.619-0.31c0.299-0.938,1.712-0.503,1.755,0.206c0.042,0.611-0.824,1.128-1.548,0.62
			c-1.458,0.415-2.155,0.055-3.619,0.415c-0.262-0.013-0.401-0.151-0.413-0.414c-0.208,0.603-0.616,0.438-1.24,0.517
			c-0.191-0.222-0.069-0.758-0.104-1.138c0.841-0.115,1.884-0.464,2.481,0c0.179-0.708,1.546,0.052,1.756-0.413
			c0.913-0.083,0.808,0.848,1.551,0.931C37.29,46.42,37.401,46.221,37.551,46.061z"/>
		<path fill="#FFFFFF" d="M32.588,73.452c-0.063,0.213,0.168,0.719-0.208,0.62c0.056-0.083,0.108-0.168,0.105-0.31
			c-0.019-0.12-0.189-0.088-0.31-0.104C32.242,73.52,32.396,73.466,32.588,73.452z"/>
		<path fill="#FFFFFF" d="M31.864,73.557c0.224-0.379,0.241,0.298,0.207,0.516c-0.184-0.194-0.301,0.123-0.516-0.104
			C31.548,73.645,32.24,74.001,31.864,73.557z"/>
		<path fill="#FFFFFF" d="M31.657,73.35c0.069,0,0.14,0,0.207,0c-0.063,0.091-0.126,0.185,0,0.207
			c-0.002,0.099-0.126,0.08-0.207,0.103c0.018-0.089-0.039-0.099-0.102-0.103C31.575,73.473,31.657,73.452,31.657,73.35z"/>
		<path fill="#FFFFFF" d="M31.348,58.257c0.222-0.126-0.24,0.679-0.517,0.724c0.013,0.462-0.379,0.518-0.414,0.932
			C30.302,59.345,31.054,58.758,31.348,58.257z"/>
		<path fill="#FFFFFF" d="M31.348,71.488c-0.508,0.124-0.931-0.464-1.344-0.827c-0.488-0.429-0.99-0.86-1.344-1.343
			c-0.026-0.446,0.194,0.066,0.309,0.104c0.033,0.243,0.36,0.191,0.309,0.516C30.008,70.416,30.485,71.145,31.348,71.488z"/>
		<path d="M31.024,73.845c-0.025,0.005-0.054,0.014-0.089,0.021c-0.011,0.002-0.02,0.005-0.028,0.007
			C30.936,73.866,30.981,73.854,31.024,73.845z M31.057,73.836c-0.007,0.001-0.014,0.003-0.021,0.006
			C31.042,73.841,31.049,73.838,31.057,73.836z M31.087,73.829c0.008-0.002,0.015-0.004,0.021-0.005
			c0.006-0.003,0.011-0.004,0.014-0.004c-0.002,0-0.006,0.001-0.014,0.004C31.104,73.825,31.096,73.827,31.087,73.829z
			 M27.008,66.012c0.159,0.459,0.277,0.96,0.516,1.343C27.654,67.395,27.264,66.269,27.008,66.012z M34.79,73.057
			c-0.015-0.013-0.031-0.027-0.048-0.043C34.76,73.032,34.777,73.047,34.79,73.057z M34.827,73.092
			c-0.003-0.003-0.007-0.007-0.013-0.011C34.819,73.085,34.823,73.089,34.827,73.092z M34.666,72.944
			c-0.03-0.028-0.059-0.054-0.082-0.074c0.018,0.018,0.042,0.038,0.071,0.065C34.658,72.939,34.662,72.942,34.666,72.944z
			 M46.751,39.549c-0.07,0.158-0.209,0.288-0.319,0.423c0.003-0.003,0.005-0.006,0.007-0.01c0.049-0.084-0.03-0.323-0.103-0.309
			c-0.127,0.021-0.023,0.43,0.079,0.34c-0.129,0.165-0.212,0.34-0.079,0.589c-0.217,0.085-0.402,0.426-0.62,0.207
			c0.083,0.452,0.554-0.035,0.309,0.619c-0.149-0.044,0.011-0.091,0-0.207c-0.236-0.031-0.114,0.3-0.309,0.31
			c0.097,0.229,0.503-0.225,0.518,0.311c0.15-0.124,0.139-0.492,0.413-0.206c-0.047,0.149-0.09-0.011-0.208,0
			c0.134,0.459,0.567,0.124,0.519,0.516c-0.322,0.184,0.049,0.279-0.311,1.035c0.056,0.212,0.489,0.024,0.206,0.309
			c0.273,0.123,0.268-0.499,0.311,0c0.243-0.101,0.395-0.295,0.62-0.413c0.101,0.05-0.317,0.852-0.62,0.517
			c0.403,0.49,1.255,0.272,1.137-0.31c0.095,0.177,0.421,0.207,0.208,0.413c0.42-0.226,0.786,0.366,1.24,0.104
			c0.34,0.906,0.241,1.528-0.104,2.274c-0.98,0.538-2.727,0.306-3.515,1.034c-0.14,0.798-0.094,1.416,0.207,1.964
			c0.129,0.232,0.473,0.292,0.415,0.62c0.333-0.472,0.39,0.75,1.134,0.516c0.549,0.979,2.771,0.354,4.137,0.621
			c0.24,0.045,0.431,0.345,0.619,0.412c0.471,0.17,1.007,0.008,1.346,0.415c0.801,0.054,1.541-0.135,2.169,0
			c0.374,0.079,0.575,0.543,0.931,0.309c0.231,0.376,0.321,0.49,0.516,0.725c-0.088,0.182-0.536-0.144-0.724-0.207
			c-2.058,0.055-3.422,0.309-5.27,1.137c-1.077,0.48-3.15,1.572-3.724,2.274c-0.364,0.45-0.521,1.161,0.206,1.446
			c0.236,0.818-0.245,1.883,0.521,2.275c-0.145,0.364,0.142,1.186,0,1.551c-0.139,0-0.277,0-0.416,0
			c0.146,0.151,0.331,0.222-0.104,0.206c0.235,0.159,0.235,0.254,0,0.413c0.965,0.101,1.877-0.442,2.481-1.343
			c0.492,0.076,0.712-0.117,1.138-0.104c-0.377,0.756-1.347,0.711-1.757,1.241c-0.096,0.121-0.005,0.31-0.104,0.413
			c-0.197,0.21-0.162-0.062-0.207,0.104c-0.032,0.118-0.383,0.334-0.517,0.517c-0.041,0.057,0.053,0.264,0,0.31
			c-0.025,0.024-0.194-0.028-0.206,0c-0.048,0.09,0.086,0.234,0.103,0.208c-0.043,0.064-0.558,0.079-0.312,0.413
			c-0.437-0.188-0.42-0.492-1.031-0.311c0.163,0.272,0.075,0.359-0.104,0.104c-0.316,2.571-1.604,5.649-3.515,7.338
			c-0.563,0.024-0.805,0.366-1.137,0.62c-0.069-0.486,0.989-0.734,1.137-1.344c-0.586,0.275-0.785,0.938-1.447,1.138
			c0.081,0.092,0.111,0.234,0.104,0.413c-0.265,0.003-0.126-0.077-0.104-0.207c-0.058-0.275-0.346,0.252-0.223,0.215
			c-0.143,0.062-0.361-0.047-0.604,0.198c-0.299,0.305-0.768,0.389-0.828,0.724c-0.291,0.087-0.267-0.146-0.516-0.102
			c0.003,0.1,0.126,0.08,0.207,0.102c-0.232,0.459-0.823,0.298-1.243,0.415c-0.18,0.051-0.843,0.413-1.445,0.517
			c-0.518,0.088-1.086-0.025-1.654,0.103c-0.103,0.003-0.083,0.127-0.103,0.207c-0.054-0.708-1.75-0.032-1.656-0.31
			c-0.421,0.517-1.04,0.499-1.238,0.827c0.191,0.044,0.699,0.31,1.136,0.413c-0.259,0.508-0.488,0.787-1.136,0.312
			c-0.237-0.031-0.389,0.022-0.416,0.204c-0.144-0.194-0.794-0.307-0.93,0.104c-0.454-0.05-0.82,0.164-1.032,0.104
			c-0.072-0.022-0.087-0.205-0.103-0.209c-0.202-0.034-0.518,0.209-0.724-0.103c-0.308,0.514-0.259-0.04-0.829,0.312
			c0.118-0.15,0.114-0.254-0.101-0.312c-0.068,0.474-0.475,0.01-0.414,0.516c-0.716,0.129-0.467-0.006-1.137-0.102
			c0.268-0.271-0.168-0.082-0.103-0.414c-1.197-0.112-1.544-1.075-2.171-1.758c0.505,0.048,0.726,0.563,0.825,0.621
			c0.021,0.01,0.29-0.257,0.416,0.206c0.375-0.463-0.053-1.216,0.207-1.756c-0.551-0.449-0.721-1.279-1.241-1.759
			c0.019-0.004,0.033-0.004,0.045-0.001c0.019,0.042,0.038,0.078,0.058,0.104c-0.005-0.05-0.012-0.097-0.058-0.104
			c-0.137-0.308-0.255-0.98-0.562-1.135c0.032-1.314-1.192-2.777-0.207-4.239c0.023-1.298-0.092-2.459-0.93-2.894
			c0.352-0.691,1.374-0.612,1.447-1.448c0.012-0.15-0.133-0.203-0.105-0.31c0.3-1.035,0.926-2.194,0.93-3.411
			c0.221,0.49,0.403-1.089,0.518-1.24c0.007-0.008,0.197,0.134,0.208,0.104c0.009-0.031-0.282-0.631,0.104-0.312
			c-0.162-0.387,0.029-0.624-0.068-1.018c0.173,0.487,0.289-0.544,0.172-0.636c0.276,0.095,0.189-0.579,0.414-0.826
			c-0.304-0.528-0.598-0.973-1.137-1.035c-1.161-0.132-1.923,1.36-2.274,2.274c-0.465-0.227-0.75-0.24-1.344-0.103
			c0.37,0.237,0.251,0.243,0,0.517c0.53,0.047,0.502-0.461,1.033-0.415c0.104,0.451-0.215,0.476-0.31,0.725
			c-0.142-0.033-0.085-0.258-0.103-0.415c-0.292,0.104,0.029,0.44,0,0.621c-0.528,0.436-0.929,1.001-1.552,1.344
			c-0.323-0.612-0.053-1.834-0.206-2.377c-0.545,0.662-0.75,1.661-0.724,2.895c-0.674,0.325-0.916,1.083-1.552,1.447
			c-0.034-1.599,0.27-3.718,0.827-5.064c0.038-0.177-0.08-0.197-0.207-0.207c0.214-0.304,0.467-0.566,0.621-0.93
			c-0.045-0.153-0.132,0.041-0.31,0c0.413-0.389,0.187-0.673,0.826-0.62c-0.009-0.169,0.174-0.45,0-0.207
			c-0.242-0.001,0.039-0.282,0.208-0.208c-0.081-0.091-0.113-0.234-0.104-0.414c-0.121,0.018-0.087,0.189-0.104,0.31
			c-0.241-0.027-0.059-0.453,0-0.516c-0.211-0.09-0.206,0.525-0.309,0.206c-0.2-0.336,0.087,0.004,0.207-0.31
			c-0.104-0.142-0.172,0.044-0.31-0.207c0.03-1.627-1.251-2.806-2.584-3.41c-0.32-0.438-0.664-0.853-1.241-1.034
			c-0.394-0.605-0.8-1.748-1.239-1.965c-0.028-0.029-0.148-0.434,0-0.516c-0.475-0.939-1.381-2.311-1.242-3.204
			c-0.604,0.392,0.142-0.637-0.619-0.517c-0.531-1.613-0.71-2.98-1.24-4.549c-0.02-1.07,0.044-1.706,0-2.688
			c0.575-0.526,0.691-1.513,0.93-2.376c0.731-0.544,0.684-1.867,1.446-2.377c0.021-0.877,0.298-1.494,0.931-1.757
			c0.374-0.97,0.892-1.797,1.86-2.172c0.038-0.479,0.352-0.68,0.723-0.826c-0.169-0.327,0.287-0.779,0.311-1.24
			c0.537,0.066,0.828-0.229,1.24,0c-0.036-0.082-0.076-0.119-0.106-0.134c0.04-0.006,0.106-0.025,0.21-0.072
			c0.626-0.286,1.333-1.242,2.067-1.552c0.441-0.186,1.314-0.019,1.551-0.516c0.614,0.064,0.744-0.358,1.344-0.31
			c0.105-0.101,0.208-0.205,0.31-0.31c1.131-0.05,2.432,0.106,3.203-0.517c0.931,0.03,1.952,0.262,2.482-0.31
			c0.121,0.017,0.087,0.188,0.104,0.31c0.888-0.07,1.543,0.116,1.859-0.62c0.208,0,0.414,0,0.622,0
			c-0.067,0.375,0.214,0.406,0.516,0.414c-0.265,0.55,0.281-0.047,0.207,0.62c0.376,0.113,0.776-0.227,1.136-0.207
			c0.71,0.034,1.479,0.853,2.377,1.137c0.31,0.097,0.67,0.016,0.932,0.104c1.243,0.411,2.175,1.384,3.206,1.655
			c0.483,1.477,2.219,1.707,2.789,3.101c1.015,0.053,1.63,0.504,1.861,1.343c0.643,0.286,1.003,0.856,1.653,1.137
			c-0.398,0.958,1.372,1.055,1.137,1.86c0.321-0.152,0.219-0.838,0.103-1.137c0.732,0.627,0.624,1.479,0.621,2.377
			c0,0.82,0.307,1.566,0.309,2.274c0.004,0.177-0.072,0.268-0.206,0.31c0.182,0.337,0.391,0.643,0.311,1.24
			c-0.349-0.006-0.563,0.641-0.723,0.827c-0.281,0.328-0.395,0.443-0.724,0.62c0.198,0.799,0.053,1.945,0.412,2.584
			c-0.333,0.424,0.021,1.536-0.516,1.757c-0.26-0.59-0.17-1.493-0.412-2.168c-0.047,0.332-0.453,0.178-0.209,0.411
			c-0.648,0.387-1.392,0.619-1.756,1.035c0.146,0.552,0.898,0.306,0.62,1.136c-0.154-0.088-0.223-0.262-0.208-0.518
			c-0.138,0.252-0.206,0.065-0.308,0.208C46.482,39.937,46.891,39.783,46.751,39.549z M35.481,45.543
			c-0.21,0.464-1.578-0.295-1.756,0.413c-0.597-0.464-1.64-0.115-2.481,0c0.035,0.38-0.086,0.916,0.104,1.138
			c0.624-0.08,1.032,0.085,1.24-0.517c0.012,0.263,0.151,0.4,0.413,0.414c1.464-0.36,2.162,0,3.619-0.415
			c0.724,0.508,1.59-0.009,1.548-0.62c-0.043-0.709-1.456-1.143-1.755-0.206c0.144,0.164,0.356,0.262,0.619,0.31
			c0.136-0.257-0.302-0.43,0-0.517c0.353-0.007,0.386,0.305,0.519,0.517c-0.149,0.16-0.261,0.36-0.519,0.414
			C36.289,46.391,36.394,45.46,35.481,45.543z M25.869,47.197c0.302,0.753-0.275,1.14-0.722,1.447
			c0.002,0.687-0.103,0.701-0.104,1.447c1.218-0.265,2.27-0.694,2.688-1.758c0.152,0.01,0.27-0.112,0.31-0.206
			c0.5-1.174,0.668-2.075,1.137-2.688c0.525-0.686,1.261-0.621,2.17-0.931c0.249-0.084,0.494-0.345,0.827-0.415
			c0.25-0.049,0.694,0.065,1.034,0c1.15-0.216,1.788-0.31,2.584-0.207c0.063-0.142,0.396-0.016,0.414-0.206
			c-0.594-0.123-0.983,0.276-0.726-0.104c-0.317-0.077-0.196,0.283-0.516,0.207c-0.012-0.116,0.151-0.163,0-0.207
			c-1.189,0.14-2.927,0.078-4.031,0.207c-0.005-0.178,0.08-0.265,0.207-0.311c0.044,0.213,0.145,0.116,0.207,0.104
			c0.064-0.012,1.226-0.315,1.24-0.517c0.266,0.219,0.85-0.032,0.725-0.309c0.252,0.216,0.22,0.146,0.62,0.102
			c0.015-0.123-0.019-0.293,0.103-0.31c0.022,0.081,0.002,0.205,0.103,0.208c-0.05-0.558,0.366-0.007,0.517-0.312
			c-0.347,0.108-0.16-0.32-0.207-0.516c-0.537-0.023-0.828-0.348-1.239-0.104c0.02-0.012-0.186-0.117-0.621-0.103
			c-0.325,0.008-0.462,0.229-0.826,0.103c0.132-0.268,0.491-0.047,0.517-0.206c-0.323-0.213-0.113-0.287,0.101-0.416
			c-0.124-0.021-0.062-0.114,0-0.206c-0.224-0.085-0.572-0.103-0.723-0.207c0.151-0.09,0.327-0.155,0.309-0.413
			c-0.585-0.119-0.148,0.217-0.516,0.207c-0.21-0.672-0.995,0.166-1.239-0.516c-0.454,0.262-1.621,0.262-1.655-0.104
			c-0.633,0.067-1.7-1.342-2.479-0.517c0.025-0.58-0.215,0.114-0.517-0.309c-0.194,0.334-0.314,0.362-0.827,0.517
			c-0.115,1.735,0.837,2.503,1.445,4.134c-0.135,0.25-0.409,0.55-0.101,0.723c-0.006-0.109,0.048-0.262,0.101-0.103
			c-0.056,0.215-0.16,0.219-0.309,0.103c0.451,0.718,0.489,1.128,0.208,2.066c0.122,0.051,0.233,0.112,0.31,0.207
			C25.956,46.9,26.279,47.679,25.869,47.197z M49.954,29.21c0-0.136,0-0.276,0-0.412c-0.068,0-0.139,0-0.206,0
			c0,0.136,0,0.276,0,0.412C49.815,29.21,49.886,29.21,49.954,29.21z M46.543,42.132c-0.076,1.28,0.257,0.141,0.104-0.207
			c-0.287-0.026-0.608,0.205-0.413,0.104C46.381,42.258,46.485,41.899,46.543,42.132z M45.453,41.127
			c0.09,0.021,0.365,0.261,0.263,0.074C45.611,40.815,45.443,40.934,45.453,41.127c-0.043-0.012-0.043,0.027,0.057,0.179
			C45.472,41.247,45.454,41.184,45.453,41.127z M44.475,69.732c0.055-0.442,1.125-1.273,0.724-1.449
			c-0.144,0.649-1.071,1.062-0.93,1.654C44.28,69.812,44.3,69.693,44.475,69.732z M44.991,51.539c0.143-0.132,0.143-0.488,0-0.62
			c-0.336-0.027-0.496,0.122-0.517,0.412C44.673,51.375,44.663,51.628,44.991,51.539z M43.236,69.732
			c3.149-2.882,3.954-8.519,1.446-11.992c-0.523-0.727-0.992-1.482-1.551-1.964c-0.192-0.167-0.511-0.208-0.518-0.208
			c-0.175-0.133-0.188-0.308-0.311-0.413c-0.09-0.077-0.199-0.037-0.308-0.104c-0.076-0.046-0.151-0.278-0.208-0.311
			c-0.345-0.197-1.212-0.318-1.034-0.413c-1.377-0.66-3.4-1.095-5.477-0.827c-1.395,0.179-2.539,0.923-3.516,1.239
			c-0.252,0.277-0.372,0.458-0.414,0.724c-0.184-0.258-0.132-0.112-0.517-0.103c-2.056,1.859-3.511,3.994-3.721,6.926
			c-0.375,5.227,3.386,9.067,7.44,9.923C38.113,72.962,41.252,71.544,43.236,69.732z M37.963,73.245
			c0.127-0.343-0.699-0.253-0.724-0.104C37.516,73.144,37.829,73.104,37.963,73.245z M35.896,73.245
			c0.257-0.022,1.202,0.109,0.826-0.206C36.467,73.249,36.219,72.901,35.896,73.245z M32.38,40.892
			c0.274,0.194,0.351-0.271,0.621,0.104C32.918,40.614,32.485,40.632,32.38,40.892z M32.38,74.072
			c0.376,0.099,0.145-0.407,0.208-0.62c-0.191,0.014-0.346,0.067-0.413,0.207c0.121,0.016,0.292-0.017,0.31,0.104
			C32.488,73.904,32.436,73.989,32.38,74.072z M32.071,74.072c0.034-0.218,0.018-0.895-0.207-0.516
			c-0.126-0.022-0.063-0.116,0-0.207c-0.067,0-0.138,0-0.207,0c0,0.103-0.083,0.123-0.102,0.207c0.063,0.004,0.12,0.014,0.102,0.103
			c0.081-0.022,0.205-0.004,0.207-0.103c0.376,0.444-0.316,0.088-0.309,0.412C31.77,74.195,31.887,73.878,32.071,74.072z
			 M30.004,70.661c0.413,0.363,0.835,0.951,1.344,0.827c-0.863-0.344-1.34-1.072-2.069-1.551c0.051-0.324-0.276-0.272-0.309-0.516
			c-0.115-0.037-0.335-0.55-0.309-0.104C29.014,69.801,29.517,70.232,30.004,70.661z M30.727,45.956c-0.136,0-0.275,0-0.414,0
			c0,0.174,0,0.345,0,0.518C30.696,46.546,30.571,46.11,30.727,45.956z M30.521,72.316c-0.205,0.029-0.205-0.141-0.31-0.208
			c-0.103,0.342-0.205-0.115-0.312-0.104c-0.022,0.081-0.003,0.203-0.104,0.207c0.167-0.407-0.445-0.036-0.413-0.31
			c-0.022-0.082-0.004-0.204-0.104-0.208c0,0.139,0,0.277,0,0.414c0.177,0.308,0.958,0.009,0.933,0.518
			c-0.132-0.005-0.143-0.134-0.312-0.104c-0.047,0.324,0.261,0.294,0.414,0.414C30.256,72.601,30.346,72.416,30.521,72.316z
			 M29.694,55.88c0.269-0.014,0.672-0.42,0.517-0.517C30.056,55.553,29.78,55.621,29.694,55.88z M30.004,71.593
			c-0.143-0.005-0.229,0.048-0.31,0.102c-0.024-0.08-0.003-0.203-0.104-0.206c0,0.104,0,0.206,0,0.311
			c0.143-0.005,0.227,0.048,0.309,0.104C29.897,71.76,29.95,71.674,30.004,71.593z M30.004,73.142
			c-0.15,0.055-0.252-0.402-0.31-0.103C29.8,73.026,29.903,73.484,30.004,73.142z M29.488,71.179
			C28.994,70.891,29.236,71.518,29.488,71.179L29.488,71.179z M28.247,57.844c0.383-0.72,0.903-1.301,1.447-1.86
			C29.057,56.241,28.137,57.525,28.247,57.844z M28.764,75.105c0.248-0.249-0.34-0.267-0.31-0.103
			C28.452,74.995,28.803,75.066,28.764,75.105z M28.454,70.454c0.104-0.512-0.327-0.329-0.104-0.722
			c-0.375-0.067-0.127,0.491-0.413,0.516c0.015-0.258-0.162-0.32-0.207-0.516c-0.435,0.173-0.78-0.116-1.035,0.31
			c0.625,0.006,0.146,0.897,0.828,0.516c0.027-0.302-0.235-0.316-0.207-0.62c0.122,0.051,0.234,0.11,0.309,0.207
			c0,0.104,0,0.207,0,0.31C27.94,70.598,27.996,70.404,28.454,70.454z M28.556,69.008c-0.205-0.555-0.544-0.971-0.826-1.447
			c0,0.138,0,0.275,0,0.413C28.018,68.07,28.078,68.812,28.556,69.008z M27.834,58.154C27.519,58.502,28.216,58.467,27.834,58.154
			L27.834,58.154z M27.007,60.635c0.015-0.123,0.184-0.234,0-0.311C26.99,60.445,26.823,60.56,27.007,60.635z M27.007,65.906
			c0.006-0.452-0.042-0.854-0.207-1.137C26.599,65.073,26.842,65.644,27.007,65.906z M26.696,62.908
			c-0.095-0.335,0.402-0.951-0.103-1.033C26.659,62.189,26.459,62.765,26.696,62.908z M26.8,64.355
			c-0.016-0.403-0.077-1.299-0.207-1.239C26.702,63.49,26.358,64.314,26.8,64.355z M21.425,52.882
			c0.055-0.193,0.544-0.478,0.309-0.619C21.721,52.498,21.112,52.663,21.425,52.882z"/>
		<path d="M31.108,73.824c0.007-0.003,0.011-0.004,0.014-0.004C31.12,73.82,31.115,73.821,31.108,73.824z"/>
		<path d="M31.108,73.824c-0.006,0.001-0.013,0.003-0.021,0.005C31.096,73.827,31.104,73.825,31.108,73.824z"/>
		<path d="M31.057,73.836c-0.007,0.002-0.014,0.005-0.021,0.006C31.042,73.839,31.049,73.837,31.057,73.836z"/>
		<path d="M30.935,73.866c0.035-0.008,0.064-0.017,0.089-0.021c-0.042,0.01-0.088,0.021-0.117,0.028
			C30.915,73.871,30.923,73.868,30.935,73.866z"/>
		<path fill="#FFFFFF" d="M30.313,45.956c0.139,0,0.277,0,0.414,0c-0.156,0.154-0.031,0.59-0.414,0.518
			C30.313,46.301,30.313,46.13,30.313,45.956z"/>
		<path fill="#FFFFFF" d="M30.521,61.875c-0.292,0.031,0.292-1.261,0.103-0.723C30.623,61.427,30.664,61.742,30.521,61.875z"/>
		<path d="M30.832,43.787c-0.045,0.127-0.132,0.21-0.31,0.207C30.473,43.773,30.668,43.796,30.832,43.787z"/>
		<path fill="#FFFFFF" d="M30.211,72.108c0.105,0.067,0.105,0.237,0.31,0.208c-0.176,0.1-0.266,0.284-0.208,0.619
			c-0.153-0.12-0.461-0.09-0.414-0.414c0.168-0.029,0.179,0.1,0.312,0.104c0.026-0.509-0.756-0.21-0.933-0.518
			c0-0.137,0-0.275,0-0.414c0.1,0.004,0.083,0.126,0.104,0.208c-0.032,0.273,0.58-0.098,0.413,0.31
			c0.101-0.004,0.082-0.126,0.104-0.207C30.006,71.993,30.109,72.45,30.211,72.108z"/>
		<path fill="#FFFFFF" d="M30.313,62.702c0.289,0.117,0.078,0.838,0.311,1.447C30.215,63.854,30.428,63.047,30.313,62.702z"/>
		<path fill="#FFFFFF" d="M30.211,55.363c0.155,0.097-0.248,0.503-0.517,0.517C29.78,55.621,30.056,55.553,30.211,55.363z"/>
		<path fill="#FFFFFF" d="M29.796,63.94c0.049,0.458,0.315,0.871,0.208,1.346c-0.705-1.312-0.57-3.871,0.207-5.271
			C29.987,61.044,29.643,62.479,29.796,63.94z"/>
		<path fill="#FFFFFF" d="M29.694,71.694c0.081-0.054,0.167-0.106,0.31-0.102c-0.055,0.081-0.107,0.167-0.104,0.31
			c-0.083-0.056-0.166-0.108-0.309-0.104c0-0.104,0-0.206,0-0.311C29.691,71.491,29.67,71.614,29.694,71.694z"/>
		<path fill="#FFFFFF" d="M29.694,73.039c0.058-0.3,0.16,0.157,0.31,0.103C29.903,73.484,29.8,73.026,29.694,73.039z"/>
		<path fill="#FFFFFF" d="M29.488,71.179C29.236,71.518,28.994,70.891,29.488,71.179L29.488,71.179z"/>
		<path fill="#FFFFFF" d="M29.694,55.984c-0.544,0.559-1.064,1.14-1.447,1.86C28.137,57.525,29.057,56.241,29.694,55.984z"/>
		<path fill="#FFFFFF" d="M28.454,75.003c-0.03-0.164,0.558-0.146,0.31,0.103C28.803,75.066,28.452,74.995,28.454,75.003z"/>
		<path fill="#FFFFFF" d="M28.35,69.732c-0.222,0.393,0.209,0.21,0.104,0.722c-0.458-0.05-0.514,0.144-0.828,0
			c0-0.103,0-0.206,0-0.31c-0.075-0.097-0.187-0.156-0.309-0.207c-0.028,0.304,0.234,0.318,0.207,0.62
			c-0.682,0.382-0.204-0.51-0.828-0.516c0.254-0.426,0.6-0.137,1.035-0.31c0.044,0.195,0.221,0.258,0.207,0.516
			C28.223,70.224,27.975,69.665,28.35,69.732z"/>
		<path fill="#FFFFFF" d="M27.73,67.561c0.281,0.477,0.621,0.893,0.826,1.447c-0.479-0.196-0.539-0.938-0.826-1.034
			C27.73,67.836,27.73,67.698,27.73,67.561z"/>
		<path fill="#FFFFFF" d="M27.834,58.154C28.216,58.467,27.519,58.502,27.834,58.154L27.834,58.154z"/>
		<path fill="#FFFFFF" d="M27.008,66.012c0.256,0.257,0.646,1.383,0.516,1.343C27.285,66.972,27.167,66.471,27.008,66.012z"/>
		<path fill="#FFFFFF" d="M27.007,60.324c0.184,0.076,0.015,0.188,0,0.311C26.823,60.56,26.99,60.445,27.007,60.324z"/>
		<path fill="#FFFFFF" d="M26.8,64.77c0.165,0.283,0.213,0.685,0.207,1.137C26.842,65.644,26.599,65.073,26.8,64.77z"/>
		<path d="M26.903,54.537c0.015,0.039,0.026,0.078,0.034,0.114C26.926,54.619,26.915,54.581,26.903,54.537z"/>
		<path fill="#FFFFFF" d="M26.593,61.875c0.504,0.082,0.007,0.698,0.103,1.033C26.459,62.765,26.659,62.189,26.593,61.875z"/>
		<path fill="#FFFFFF" d="M26.593,63.116c0.13-0.06,0.191,0.836,0.207,1.239C26.358,64.314,26.702,63.49,26.593,63.116z"/>
		<path fill="#FFFFFF" d="M25.663,70.661c-0.021-0.026-0.039-0.062-0.058-0.104C25.651,70.564,25.658,70.611,25.663,70.661z"/>
		<path d="M25.043,72.833c0.088-0.326,0.77,0.463,0.104,0.309C25.153,72.995,25.164,72.85,25.043,72.833z"/>
		<path d="M22.769,87.924c-0.207,0-0.414,0-0.621,0c-0.131-0.277-0.164-0.492-0.517-0.31c0.07-0.554-0.734-0.232-0.62-0.827
			c-0.395,0.229-0.337-0.176-0.519-0.414c-0.403,0.214-0.262-0.26-0.516,0.103c-0.041-0.248,0.189-0.223,0.104-0.516
			c-0.155-0.018-0.381,0.036-0.413-0.104c-0.173-0.596-0.406-0.28-0.621-1.034c-0.149-0.056-0.534,0.121-0.517-0.102
			c0.08-0.024,0.204-0.004,0.207-0.104c-0.173-0.239-0.575-0.253-0.725-0.518c0.162-0.532-0.867-0.697-0.826-1.446
			c-0.625-0.331-0.816-1.119-1.137-1.241c-0.12-0.684-0.634-1.377-0.827-2.17c-0.088-0.364-0.023-0.954-0.104-1.24
			c-0.027-0.095-0.195,0.025-0.208-0.206c-0.014-0.268-0.024-0.752,0.311-0.827c0.803,1.323,0.697,2.738,1.344,4.03
			c-0.023-0.045,0.053-0.104,0.102,0C17.983,83.677,20.67,85.64,22.769,87.924z"/>
		<path fill="#FFFFFF" d="M21.734,52.263c0.235,0.142-0.254,0.426-0.309,0.619C21.112,52.663,21.721,52.498,21.734,52.263z"/>
		<path d="M20.598,51.021c0.021,0.178-0.176,0.269-0.001,0.31c-0.237,0.11-0.366,0.324-0.723,0.311
			c0.037,0.416-0.59,0.506-0.725,0.309c-0.062,0.282-0.541,0.149-0.724,0.312c-0.191,0.279,0.028-0.237,0.207-0.208
			c-0.197-0.139-0.369,0.031-0.516-0.309c0.102-0.106,0.205-0.209,0.309-0.311c-0.343-0.157-0.169-0.441-0.309-0.619
			c0.02-0.118,0.104-0.059,0.104,0c0.435-0.148,0.754-0.492,1.654-0.415C20.095,50.629,20.169,51.003,20.598,51.021z"/>
		<path d="M19.875,53.088c0.145-0.2,0.056-0.631,0.517-0.516c-0.111,0.096-0.032,0.381-0.311,0.309
			c-0.02,0.089,0.041,0.097,0.103,0.103c0.02,0.089-0.039,0.097-0.103,0.104C20.012,53.088,19.944,53.088,19.875,53.088z"/>
		<path d="M19.871,21.738C19.792,21.75,19.817,21.711,19.871,21.738L19.871,21.738z"/>
		<path d="M18.633,60.841c0.093,0.283,0.232-0.314,0.414,0c-0.323,0.498,0.127,1.225-0.31,2.067
			c-0.234-0.604-0.954-0.998-0.827-1.652c-0.113,0.025-0.07,0.205-0.207,0.206c0-0.033-0.218-0.684-0.312-0.827
			c-0.107-0.168-0.701-0.255-0.516-0.723c-0.254,0.013-0.499,0.015-0.62-0.104c0.513-0.062,0.042-0.46,0.311-0.724
			c-0.036-0.146-0.182-0.009-0.207,0.104c-0.08-1.17-1.127-1.893-1.137-2.792c0.279,0.136,0.269,0.556,0.62,0.622
			c-0.045,0.148-0.091-0.012-0.207,0c-0.107,0.347,0.321,0.161,0.517,0.207c-0.197,0.381,0.064,0.256,0.309,0.413
			c-0.327,0.146-0.005,0.317,0.311,0.518c-0.329,0.587,0.59,0.123,0.205,0.619c0.319-0.087,0.398,0.363,0.623,0.621
			c0.087,0.1,0.272,0.389,0.31,0.413c0.152,0.099,0.449-0.066,0.31,0.412c0.185,0.015,0.218-0.125,0.413-0.103
			c-0.03,0.212-0.279,0.204-0.309,0.414c0.185,0.014,0.217-0.126,0.413-0.103C18.781,60.644,18.666,60.701,18.633,60.841z"/>
		<path d="M17.392,66.009c-0.047,0.764,0.106,1.166,0,1.965c-0.159,1.224-0.726,2.774-1.032,3.929
			c-0.109,0.405,0.042,0.909-0.31,1.033c-0.049,0.796-0.082,1.571-0.517,1.966c-0.161,0.143-0.591-0.088-0.517,0.309
			c-0.164-0.202-0.252-0.545,0-0.62c-0.033-0.387-0.252-0.995,0.207-1.033c-0.475-0.264-0.097-1.112-0.104-1.654
			c-0.002-0.21-0.396-0.646,0-0.621c-0.027-0.087-0.392-0.246-0.416-0.138c-0.026-0.438-0.146-1.007,0.105-1.411
			c0.161,0.035-0.091,0.181,0.103,0.205c-0.018-0.088,0.041-0.097,0.104-0.104c-0.072-0.203-0.277-0.275-0.517-0.31
			c0.003-0.101,0.125-0.08,0.207-0.103c-0.134-1.133-0.218-1.957-0.311-3.308c0.451,0.02,0.187,0.179,0.208,0.517
			c0.472-0.034,0.057-1.365,0.103-1.034c-0.147-0.024,0.095-0.515,0-0.827c-0.042-0.107-0.401-0.362-0.311,0
			c-0.167,0.018-0.209-0.676,0.104-0.519c-0.131-0.32-0.645-0.796-0.31-1.238c-0.212,0.026-0.089-0.235-0.414-0.311
			c0.22-0.218-0.058-1.234-0.416-1.446c0.087-0.261-0.198-0.891,0.208-0.827c0.019,0.087-0.041,0.097-0.103,0.103
			c0.019,0.117,0.103,0.059,0.103,0c0.306,0.159-0.381,0.459,0,0.725c0.184-0.077,0.014-0.188,0-0.311
			c0.278-0.136,0.249,0.92,0.518,1.137c0.35-0.043-0.275-0.401,0.205-0.311c0.162,0.445,0.062,0.752,0.312,0.931
			c0.121-0.017,0.086-0.188,0.103-0.31c0.236,0.187,0.078,1.055,0.414,1.239c0.35-0.042-0.275-0.4,0.206-0.309
			c-0.347,0.218,0.332,0.522,0.218,0.325c0.24,0.36-0.002,0.612,0.3,0.707c0.125,0.04,0.441-0.226,0.31,0.414
			c0.282-0.337,0.069-1.172,0.516-1.344c-0.165,0.683-0.147,1.022-0.102,1.966c0.178-0.294,0.329-0.543,0.207-0.828
			c0.457-0.255,0.101,0.487,0.103,0.516c0.027,0.401,0.179,0.777,0.102,1.137C17.315,66.344,17.058,65.881,17.392,66.009z
			 M15.016,70.454c0.005-0.177-0.08-0.265-0.207-0.31C14.804,70.323,14.889,70.409,15.016,70.454z M15.016,71.075
			c-0.023-0.184,0.104-0.519-0.207-0.414C14.781,70.896,14.834,71.05,15.016,71.075z M14.912,67.147
			c0.091-0.214-0.267-0.465-0.309-0.207C14.75,66.966,14.776,67.111,14.912,67.147z M14.81,68.182c0.28-0.269-0.038-1.504,0-0.415
			C14.738,67.949,14.696,68.088,14.81,68.182z M14.603,63.116c0-0.104,0.083-0.124,0.103-0.208c-0.103,0-0.124-0.084-0.207-0.102
			c0,0.102-0.084,0.122-0.104,0.206C14.5,63.013,14.519,63.097,14.603,63.116z"/>
		<path d="M17.083,49.471c-0.016,0.122-0.187,0.088-0.309,0.104c0.003,0.101,0.125,0.081,0.205,0.104
			c-0.02,0.139-0.427,0.192,0,0.207c-0.649,0.246-0.848-1.128-0.618-1.964c0.456-0.043,0.723,0.103,0.931,0.31
			C17.159,48.629,16.661,49.413,17.083,49.471z"/>
		<path d="M16.876,63.219c0.04-0.197,0.132,0.066,0.102,0.207C16.94,63.622,16.848,63.357,16.876,63.219z"/>
		<path d="M16.773,64.046C17.006,63.392,17.049,64.833,16.773,64.046L16.773,64.046z"/>
		<path d="M15.12,75.623c0.263,0.138-0.152,0.459-0.104,0.724C14.808,76.261,15.081,75.801,15.12,75.623z"/>
		<path d="M14.912,55.984c-0.243-0.256,0.542,0.335,0.208,0.516C14.905,56.474,15.091,56.047,14.912,55.984z"/>
		<path fill="#FFFFFF" d="M14.81,70.145c0.127,0.045,0.212,0.133,0.207,0.31C14.889,70.409,14.804,70.323,14.81,70.145z"/>
		<path fill="#FFFFFF" d="M14.81,70.661c0.311-0.104,0.183,0.23,0.207,0.414C14.834,71.05,14.781,70.896,14.81,70.661z"/>
		<path fill="#FFFFFF" d="M14.603,66.94c0.042-0.258,0.4-0.007,0.309,0.207C14.776,67.111,14.75,66.966,14.603,66.94z"/>
		<path d="M14.706,71.179c0.148,0.127,0.195,0.355,0.206,0.62c-0.104-0.068-0.105-0.238-0.309-0.206
			C14.589,71.406,14.729,71.374,14.706,71.179z"/>
		<path fill="#FFFFFF" d="M14.81,67.767c-0.038-1.089,0.28,0.146,0,0.415C14.696,68.088,14.738,67.949,14.81,67.767z"/>
		<path d="M14.706,71.902c0.107,0.042,0.362,0.4,0,0.31c-0.013,0.185,0.126,0.217,0.104,0.414
			C14.553,73.685,14.56,72.368,14.706,71.902z"/>
		<path d="M14.704,71.144c0.001,0.013,0.001,0.023,0.002,0.035C14.703,71.165,14.702,71.152,14.704,71.144z"/>
		<path d="M14.603,73.452c0.35,0.111-0.144,1.328-0.104,1.138C14.524,74.009,14.485,73.765,14.603,73.452z"/>
		<path d="M14.603,74.59c0.194,0.136-0.096,0.654-0.104,0.929C14.161,75.349,14.426,74.825,14.603,74.59z"/>
		<path fill="#FFFFFF" d="M14.706,62.908c-0.02,0.084-0.103,0.104-0.103,0.208c-0.084-0.02-0.104-0.104-0.208-0.104
			c0.021-0.084,0.104-0.104,0.104-0.206C14.582,62.824,14.603,62.908,14.706,62.908z"/>
		<path d="M14.5,64.77c0.27,0.178-0.147,0.535,0,0.931C14.402,65.87,14.221,64.697,14.5,64.77z"/>
		<path d="M14.189,67.147c0.066-0.292,0.119,0.237,0.101,0.31C14.245,67.664,14.099,67.541,14.189,67.147z"/>
		<path d="M14.086,66.526c0.167,0.103,0.238,0.276,0.104,0.414C14.049,66.908,14.103,66.681,14.086,66.526z"/>
		<path fill="#FFFFFF" d="M6.539,41.822c0.119,0.02,0.059,0.104,0,0.104c-0.018,0.088,0.042,0.097,0.104,0.104
			C6.447,42.441,6.424,42.004,6.539,41.822z"/>
	</g>
	<g>
	</g>
</g>
</svg>
